<svg xmlns="http://www.w3.org/2000/svg" width="320.703" height="327.709" viewBox="0 0 320.703 327.709">
  <g id="message-icon" transform="translate(-261.174 -157.544)">
    <path id="Path_1" data-name="Path 1" d="M470.89,345.729c9.3-38.171,5.459-73.276-1.755-91.484-7.1-17.928-16.335-28.688-19.584-32.13l8.3-26.949,2.96-.578a4.391,4.391,0,0,0,.431-8.512l-39.694-12.03a4.324,4.324,0,0,0-5.066,1.988,4.378,4.378,0,0,0,.76,5.391l1.993,1.9-8.284,26.9c-4.622,1.017-18.3,4.723-34.264,15.548-17.7,12.009-41.616,35.457-55.014,78.966l-.995,3.229C322.4,308.538,468.926,346,470.89,345.729Z" transform="translate(32.994 9.04)" fill="#fffaca"/>
    <path id="Path_2" data-name="Path 2" d="M442.517,278.29c-10.9-13.583-20.308-25.315-43.354-19.882-6.771,1.6-13.331,3.826-19.675,5.98-15.61,5.3-31.637,10.749-48.959,5.254L301.144,363.8a25.968,25.968,0,0,0,9.582,28.676c9.311,6.747,26.24,16.585,54.014,25.138,27.927,8.6,47.72,10.023,59.407,9.7a26,26,0,0,0,24.171-18.321l33.489-107.408C462.165,302.771,451.839,289.906,442.517,278.29Z" transform="translate(21.524 55.176)" fill="#26cbbe"/>
    <path id="Path_3" data-name="Path 3" d="M410.683,250.622c-1.07.205-4.146.319-11.967-1.842q-2.495-.69-4.816-1.492l3.408-5.582-2.224-1.39c-3.216-2.012-6.722-4.405-9.389-6.42C396.872,237.426,409.186,247.038,410.683,250.622Z" transform="translate(69.046 42.337)" fill="#fff" stroke="#fff" stroke-miterlimit="10" stroke-width="1"/>
    <path id="Path_4" data-name="Path 4" d="M382.411,235.237a86.27,86.27,0,0,0,10.257,7.429l-1.192,1.951a71.746,71.746,0,0,1-10.493-5.467Z" transform="translate(66.434 43.081)" fill="#fff" stroke="#fff" stroke-miterlimit="10" stroke-width="1"/>
    <path id="Path_5" data-name="Path 5" d="M372.606,228.244c.561-.393,1.966-.712,4.564-.393l-2.672,5.789c-1.472-1.893-2.228-3.5-2.228-4.583C372.382,228.785,372.5,228.514,372.606,228.244Z" transform="translate(61.603 38.913)" fill="#fff" stroke="#fff" stroke-miterlimit="10" stroke-width="1"/>
    <path id="Path_6" data-name="Path 6" d="M300.76,342.93a7.883,7.883,0,0,1,1.082-7.4c3.56-4.939,12.368-6.874,26.927-5.915a137.307,137.307,0,0,1,18.726,3l-1.127,5.184a132.152,132.152,0,0,0-17.948-2.89c-16.879-1.111-21.2,2.234-22.274,3.725a2.674,2.674,0,0,0-.473,2.293Z" transform="translate(21.687 95.282)" fill="#061c59"/>
    <path id="Path_7" data-name="Path 7" d="M423.61,167.7a2.184,2.184,0,0,1,1.366,2.941l-14.8,36.992a2.184,2.184,0,0,1-2.633,1.237L388.878,203.3l-.019,0a2.185,2.185,0,0,1-1.484-2.582l9.053-38.942a2.184,2.184,0,0,1,2.77-1.592L423.61,167.7" transform="translate(69.947 1.406)" fill="#fc8363"/>
    <path id="Path_8" data-name="Path 8" d="M447.084,257.616c2.155-7.754-18.813-20.813-30-23.936-3.4-.95-8.052-2.249-9.472.967a3.671,3.671,0,0,0-.339,1.073l-2.288,6.262c-1.043-.8-2.018-1.6-2.887-2.388l6.341-13.732-3.143-.756c-6.363-1.533-9.969-.836-12.012.529a2.63,2.63,0,0,0-1.522,1.46l-.009.022a5.969,5.969,0,0,0-.9,1.956c-.034.131-.051.269-.078.4-3.718,9.025-17.4,42.341-30.737,76.46-31.7,81.081-30.683,87.481-30.3,89.889,1.527,9.551,8.7,16.007,23.765,20.645a153.62,153.62,0,0,0,20.168,4.482l2.212.361.726-2.122c.176-.513,17.759-52.046,33.672-105.4a.689.689,0,0,0,.016-.12A229.346,229.346,0,0,0,431.355,285.5C439.24,273.3,447.045,257.757,447.084,257.616Zm-5.287-1.757c-1.069.2-4.144.319-11.965-1.844-1.663-.459-3.266-.959-4.816-1.491l3.407-5.582-2.224-1.391c-3.216-2.01-6.722-4.4-9.389-6.42C427.987,242.662,440.3,252.273,441.8,255.859Zm-30.883-14.642a86.079,86.079,0,0,0,10.255,7.427l-1.191,1.952a72.055,72.055,0,0,1-10.493-5.467Zm-14.636-11.161c.56-.393,1.965-.712,4.564-.393l-2.672,5.787c-1.472-1.892-2.228-3.5-2.228-4.581Z" transform="translate(37.962 36.981)" fill="#fc8363"/>
    <path id="Path_9" data-name="Path 9" d="M406.129,379.1l-2.751-4.534c2.759-1.676,2.627-2.949,2.585-3.367-.477-4.612-13.1-14.258-47.091-26.271l1.767-5c22.456,7.934,49.463,19.706,50.6,30.726C411.476,372.945,410.783,376.274,406.129,379.1Z" transform="translate(54.174 101.13)" fill="#061c59"/>
    <g id="Path_10" data-name="Path 10" transform="translate(37.962 55.574)" fill="#5e5982" stroke-miterlimit="10">
      <path d="M 376.8988342285156 401.7047729492188 L 375.6477966308594 401.5008239746094 L 373.4356994628906 401.1401672363281 C 365.3345336914062 399.8178405761719 358.6722106933594 398.3366088867188 353.0677490234375 396.6117553710938 C 345.3098754882812 394.2226867675781 339.5837097167969 391.3490295410156 335.5618591308594 387.8264465332031 C 331.4833984375 384.2543334960938 329.0957946777344 379.9833679199219 328.2625732421875 374.7694396972656 L 328.2519226074219 374.7031555175781 C 328.0174560546875 373.2480773925781 327.7256469726562 371.4371643066406 331.537109375 359.6541442871094 C 335.9270935058594 346.0828247070312 345.0476684570312 321.5687866210938 358.6455383300781 286.7930297851562 C 359.2891235351562 285.14794921875 359.8115539550781 283.8153991699219 360.2898559570312 282.5992126464844 C 358.2905883789062 280.3611755371094 355.6360473632812 276.627685546875 355.8696899414062 272.7808227539062 C 355.9940185546875 270.7342529296875 356.9554138183594 268.9220275878906 358.6499328613281 267.5399780273438 C 360.0810546875 266.3732604980469 361.6408996582031 265.7817687988281 363.2863464355469 265.7817687988281 C 364.3932189941406 265.7817687988281 365.5090637207031 266.0487365722656 366.6195983886719 266.5775756835938 C 367.151611328125 265.2394409179688 367.7153015136719 263.8244323730469 368.3261108398438 262.2937316894531 L 368.58642578125 261.6414184570312 L 369.2541198730469 261.4236450195312 C 372.7500915527344 260.2832641601562 377.3873901367188 258.8270568847656 382.2572937011719 257.6791076660156 C 386.2281494140625 256.7427673339844 389.9854736328125 256.2680053710938 393.4248962402344 256.2680053710938 C 397.1463012695312 256.2680053710938 400.532958984375 256.7953796386719 403.7782897949219 257.8802490234375 C 406.7301940917969 258.8670349121094 409.4897155761719 260.2929992675781 412.2144775390625 262.2396850585938 C 417.3868713378906 265.9349670410156 421.7235717773438 271.0711059570312 425.7221984863281 276.0150756835938 L 426.4358215332031 276.8974609375 L 425.7807922363281 277.8241577148438 C 423.2084350585938 281.46337890625 420.5491027832031 285.0088500976562 417.8627014160156 288.3811645507812 C 418.5791625976562 289.1867370605469 419.1136779785156 290.1742248535156 419.4583740234375 291.3323364257812 C 420.0823364257812 293.4281005859375 419.8576965332031 295.46728515625 418.8087158203125 297.2293701171875 C 417.9269714355469 298.7105102539062 416.486572265625 299.9914855957031 414.5274963378906 301.0366821289062 C 413.1067504882812 301.7947082519531 411.3985900878906 302.426025390625 409.5451965332031 302.881103515625 C 396.0476989746094 347.5703735351562 382.1279907226562 386.958251953125 378.1639099121094 398.0189819335938 C 378.0872497558594 398.2329406738281 378.0425109863281 398.3576049804688 378.0314331054688 398.3893432617188 L 377.3086242675781 400.5052795410156 L 376.8988342285156 401.7047729492188 Z" stroke="none"/>
      <path d="M 393.4248962402344 257.7680053710938 C 390.1697082519531 257.7678833007812 386.5884094238281 258.1989440917969 382.6014709472656 259.1390686035156 C 378.2162170410156 260.1727905273438 373.9273376464844 261.4770202636719 369.7192993164062 262.8496704101562 C 368.9420471191406 264.7974548339844 368.1570129394531 266.7685852050781 367.3673400878906 268.7583923339844 C 365.4102172851562 267.3685607910156 362.5343933105469 266.3084411621094 359.5979919433594 268.702392578125 C 355.2484436035156 272.2497863769531 357.8631591796875 277.9329833984375 362.0307922363281 282.2716369628906 C 361.3670043945312 283.9566650390625 360.7048034667969 285.6464233398438 360.0425415039062 287.3392639160156 C 328.3385009765625 368.4204711914062 329.3598022460938 372.1248779296875 329.7437744140625 374.5327453613281 C 331.2703247070312 384.0851745605469 338.4458618164062 390.5393981933594 353.5089721679688 395.1781005859375 C 359.1051635742188 396.9004211425781 365.7911376953125 398.3725280761719 373.6770629882812 399.6596984863281 L 375.88916015625 400.0203552246094 L 376.613525390625 397.8999938964844 C 376.7829895019531 397.4056701660156 392.9886779785156 352.60498046875 408.3611450195312 301.6127014160156 C 414.2526550292969 300.3721618652344 419.6233825683594 297.1434936523438 418.0207214355469 291.76025390625 C 417.5621948242188 290.2197570800781 416.7584838867188 289.2108764648438 415.8055725097656 288.5486755371094 C 418.6876831054688 284.9795837402344 421.6023559570312 281.1368103027344 424.5558776855469 276.9583435058594 C 416.1381530761719 266.5503845214844 408.1149597167969 257.7685241699219 393.4248962402344 257.7680053710938 M 393.4234924316406 254.7680053710938 L 393.4234924316406 257.7680053710938 L 393.4239807128906 254.7680053710938 C 397.3106384277344 254.7681579589844 400.852783203125 255.3208923339844 404.2538757324219 256.4578857421875 C 407.3493347167969 257.4926452636719 410.2384643554688 258.9847106933594 413.08642578125 261.0193176269531 C 418.4122619628906 264.8241577148438 422.8250732421875 270.0476684570312 426.8884582519531 275.0718078613281 L 428.3157653808594 276.8365478515625 L 427.0056762695312 278.6899719238281 C 424.6482238769531 282.025146484375 422.2178344726562 285.2825317382812 419.7601623535156 288.4016723632812 C 420.2412109375 289.1439819335938 420.6207580566406 289.9795227050781 420.8960571289062 290.9044189453125 C 421.6427001953125 293.4123840332031 421.3666381835938 295.8648986816406 420.0976257324219 297.9966125488281 C 418.0283203125 301.4726867675781 413.858642578125 303.24462890625 410.7384033203125 304.1177978515625 C 397.3076782226562 348.506103515625 383.5194702148438 387.521728515625 379.5761413574219 398.5245971679688 C 379.5067749023438 398.7181701660156 379.4639282226562 398.8375854492188 379.448974609375 398.8799743652344 L 377.9085083007812 403.38916015625 L 373.1943359375 402.62060546875 C 365.0245971679688 401.287109375 358.2969970703125 399.7905883789062 352.6265258789062 398.0453796386719 C 344.6625061035156 395.5928344726562 338.7574768066406 392.619384765625 334.5735473632812 388.954833984375 C 332.4037780761719 387.054443359375 330.6498413085938 384.9140625 329.3604125976562 382.5931396484375 C 328.0874633789062 380.3019104003906 327.2197265625 377.749267578125 326.7813720703125 375.0061645507812 L 326.7710266113281 374.9417724609375 C 326.6145629882812 373.9706420898438 326.509521484375 372.9065856933594 326.9376220703125 370.5832824707031 C 327.3938903808594 368.1071166992188 328.4315490722656 364.3811645507812 330.1099243164062 359.1925048828125 C 334.5090637207031 345.5927734375 343.6398010253906 321.05029296875 357.24853515625 286.2467651367188 C 357.7476196289062 284.9710083007812 358.1737365722656 283.8835144042969 358.5628356933594 282.8927001953125 C 356.4998168945312 280.4158325195312 354.1311340332031 276.6629333496094 354.3724670410156 272.6898498535156 C 354.5228576660156 270.214111328125 355.6741638183594 268.0313415527344 357.701904296875 266.3775634765625 C 359.4078674316406 264.9867858886719 361.2865905761719 264.2817687988281 363.2863464355469 264.2817687988281 C 364.11767578125 264.2817687988281 364.9478454589844 264.4042663574219 365.7730102539062 264.6478271484375 C 366.1414184570312 263.7224731445312 366.5265502929688 262.7562561035156 366.9329528808594 261.73779296875 L 367.4535522460938 260.4331665039062 L 368.7889404296875 259.99755859375 C 372.3128051757812 258.8480834960938 376.9890747070312 257.3798522949219 381.9131469726562 256.2190856933594 C 385.9965209960938 255.2562561035156 389.8692321777344 254.7680053710938 393.4234924316406 254.7680053710938 Z" stroke="none" fill="#082d74"/>
    </g>
    <path id="Path_11" data-name="Path 11" d="M410.389,368.767c-1.324,4.3-24.587,3.731-51-4.4s-45.964-20.746-44.639-25.048S334.921,351,361.331,359.134,411.714,364.466,410.389,368.767Z" transform="translate(29.675 100.394)" fill="#061c59"/>
    <path id="Path_12" data-name="Path 12" d="M424.142,170.047a2.065,2.065,0,0,1,1.292,2.783l-13.992,34.979a2.066,2.066,0,0,1-2.49,1.171L391.3,203.714l-.019-.006a2.064,2.064,0,0,1-1.4-2.441l8.561-36.823a2.065,2.065,0,0,1,2.619-1.5l23.084,7.107m1.561-5.069-23.084-7.109a7.371,7.371,0,0,0-9.347,5.374l-8.561,36.823a7.4,7.4,0,0,0,5.01,8.713l.022.006.04.012,17.651,5.265a7.363,7.363,0,0,0,8.889-4.177l.023-.053.022-.054,13.978-34.942a7.369,7.369,0,0,0-4.643-9.859Z" transform="translate(68.396)" fill="#fc8363"/>
    <ellipse id="Ellipse_1" data-name="Ellipse 1" cx="1.12" cy="1.494" rx="1.12" ry="1.494" transform="translate(468.043 172.861) rotate(-72.884)" fill="#fff"/>
    <ellipse id="Ellipse_2" data-name="Ellipse 2" cx="1.494" cy="1.992" rx="1.494" ry="1.992" transform="translate(477.635 172.167) rotate(-72.884)" fill="#fff"/>
    <ellipse id="Ellipse_3" data-name="Ellipse 3" cx="1.867" cy="2.614" rx="1.867" ry="2.614" transform="translate(470.037 180.769) rotate(-72.884)" fill="#fff"/>
    <ellipse id="Ellipse_4" data-name="Ellipse 4" cx="0.747" cy="0.871" rx="0.747" ry="0.871" transform="translate(482.209 179.307) rotate(-72.884)" fill="#fff"/>
    <circle id="Ellipse_5" data-name="Ellipse 5" cx="1.743" cy="1.743" r="1.743" transform="translate(474.11 199.052)" fill="#fff"/>
    <circle id="Ellipse_6" data-name="Ellipse 6" cx="0.871" cy="0.871" r="0.871" transform="translate(466.58 200.983)" fill="#fff"/>
    <circle id="Ellipse_7" data-name="Ellipse 7" cx="0.871" cy="0.871" r="0.871" transform="translate(473.41 186.414)" fill="#fff"/>
    <ellipse id="Ellipse_8" data-name="Ellipse 8" cx="1.245" cy="0.996" rx="1.245" ry="0.996" transform="translate(478.748 186.317) rotate(-72.884)" fill="#fff"/>
    <ellipse id="Ellipse_9" data-name="Ellipse 9" cx="0.871" cy="1.245" rx="0.871" ry="1.245" transform="translate(465.057 183.403) rotate(-72.884)" fill="#fff"/>
    <ellipse id="Ellipse_10" data-name="Ellipse 10" cx="1.786" cy="2.415" rx="1.786" ry="2.415" transform="translate(468.631 164.185) rotate(-72.884)" fill="#fff"/>
    <circle id="Ellipse_11" data-name="Ellipse 11" cx="1.743" cy="1.743" r="1.743" transform="translate(491.725 170.611)" fill="#fff"/>
    <ellipse id="Ellipse_12" data-name="Ellipse 12" cx="1.521" cy="2.206" rx="1.521" ry="2.206" transform="translate(484.474 168.803) rotate(-72.884)" fill="#fff"/>
    <ellipse id="Ellipse_13" data-name="Ellipse 13" cx="1.369" cy="2.49" rx="1.369" ry="2.49" transform="translate(463.48 196.984) rotate(-72.884)" fill="#fff"/>
    <ellipse id="Ellipse_14" data-name="Ellipse 14" cx="2.047" cy="3.349" rx="2.047" ry="3.349" transform="translate(469.793 208.71) rotate(-72.884)" fill="#fff"/>
    <circle id="Ellipse_15" data-name="Ellipse 15" cx="2.081" cy="2.081" r="2.081" transform="translate(458.998 205.546) rotate(-72.884)" fill="#fff"/>
    <ellipse id="Ellipse_16" data-name="Ellipse 16" cx="1.245" cy="1.494" rx="1.245" ry="1.494" transform="translate(457.788 196.013) rotate(-72.884)" fill="#fff"/>
    <ellipse id="Ellipse_17" data-name="Ellipse 17" cx="1.12" cy="1.245" rx="1.12" ry="1.245" transform="translate(462.368 176.063) rotate(-72.884)" fill="#fff"/>
    <ellipse id="Ellipse_18" data-name="Ellipse 18" cx="1.618" cy="1.369" rx="1.618" ry="1.369" transform="translate(479.421 205.28) rotate(-72.884)" fill="#fff"/>
    <circle id="Ellipse_19" data-name="Ellipse 19" cx="1.494" cy="1.494" r="1.494" transform="translate(485.473 182.665)" fill="#fff"/>
    <circle id="Ellipse_20" data-name="Ellipse 20" cx="1.369" cy="1.369" r="1.369" transform="translate(485.587 189.168)" fill="#fff"/>
    <ellipse id="Ellipse_21" data-name="Ellipse 21" cx="2.116" cy="2.49" rx="2.116" ry="2.49" transform="translate(489.054 180.764) rotate(-72.884)" fill="#fff"/>
    <circle id="Ellipse_22" data-name="Ellipse 22" cx="2.614" cy="2.614" r="2.614" transform="translate(462.819 165.522)" fill="#fff"/>
    <g id="Group_1" data-name="Group 1" transform="translate(393.816 325.704)">
      <path id="Path_13" data-name="Path 13" d="M392.14,281.458a2.929,2.929,0,0,0-3.5-2.217,48.2,48.2,0,0,1-17.152.05,11.157,11.157,0,0,1-.291,5.815,54.126,54.126,0,0,0,18.727-.146A2.932,2.932,0,0,0,392.14,281.458Z" transform="translate(-332.809 -258.263)" fill="#fffaca"/>
      <path id="Path_14" data-name="Path 14" d="M379.461,295.838a4.465,4.465,0,0,0,3.86-2.451v0l-.012,0c.011-.011.02-.031.031-.044a7.839,7.839,0,0,0,.4-.961h0a10.987,10.987,0,0,0,.115-5.868l-.025,0a7.045,7.045,0,0,0-1.522-2.624c-4.334-4.685-9.339-3.986-12.637-2.689a36.106,36.106,0,0,1-13.328-13.939,2.93,2.93,0,0,0-5.15,2.8,41.565,41.565,0,0,0,13.771,15.08l-.014.012c3.221,2.276,6.255,4.58,6.255,4.58a34.214,34.214,0,0,1-7.65-3.375c-4.771,4.213-13.821,13.263-16.473,23.35-1.38,5.246-.07,7.875,1.27,9.156A4.886,4.886,0,0,0,350.306,320a5.725,5.725,0,0,0,3.409-.068c3.387-1.06,7.8-5.456,11.7-14.256a83.5,83.5,0,0,1,1.931-12.441,76.425,76.425,0,0,0-.553,10.849,38.167,38.167,0,0,0,3.314,14.028c1.865,3.84,3.938,5.363,5.64,5.887a5.133,5.133,0,0,0,6.052-2.439c2.341-3.749,2.526-12.439-3.05-25.756A5.188,5.188,0,0,0,379.461,295.838Zm-27.076,18.317a8.861,8.861,0,0,1,.373-2.969c1.612-6.126,6.3-12.058,10.392-16.318C359.111,308.346,354.2,313.152,352.384,314.155Zm25.753-22.316c.527-4.825-1.939-6.161-1.939-6.161l-1.52-1.5C380.277,284.476,378.138,291.838,378.138,291.838Zm-1.105,26.2a8.843,8.843,0,0,1-1.651-2.5c-2.77-5.7-3.079-13.249-2.745-19.148C378.349,309.25,377.754,316.1,377.032,318.043Z" transform="translate(-346.502 -265.721)" fill="#fffaca"/>
    </g>
    <path id="Path_15" data-name="Path 15" d="M347.342,254.331a3.109,3.109,0,0,1-2.747-4.559c.557-1.052,13.91-25.921,40.229-38.625a3.109,3.109,0,0,1,2.7,5.6c-24.426,11.789-37.306,35.69-37.434,35.929A3.105,3.105,0,0,1,347.342,254.331Z" transform="translate(46.058 29.551)" fill="#9187a0"/>
    <path id="Path_16" data-name="Path 16" d="M581.877,335.367c-13.771-6.258-21.569-15.251-27.833-22.475-9.585-11.049-14.859-17.137-34.409-10.235-30.521,10.776-43.686-5.638-55.308-20.12-11-13.711-20.5-25.554-43.764-20.07-6.835,1.612-13.457,3.861-19.86,6.038-20.2,6.862-41.081,13.961-64.526-2.259-11.438-7.914-22.884-2.825-36.141,3.062-12.293,5.463-25.013,11.1-38.862,6.488,0,0,23.916-10.053,35.077-15.012,13.821-6.14,29.49-13.1,45.233-2.211,19.579,13.546,36.557,7.779,56.217,1.1,6.613-2.246,13.451-4.57,20.723-6.283,28.974-6.832,41.838,9.179,53.176,23.308,11.538,14.378,20.653,25.738,44.928,17.163,25.54-9.016,34.777,1.638,44.561,12.919C567.056,313.662,581.877,335.367,581.877,335.367Z" transform="translate(0 52.245)" fill="#082d74"/>
    <path id="Path_17" data-name="Path 17" d="M476.9,298.152,443.966,405.091a20.941,20.941,0,0,1-19.475,14.752c-11.4.311-30.759-1.1-58.26-9.563-27.342-8.421-43.9-18.026-52.973-24.6a20.91,20.91,0,0,1-7.715-23.091l29.363-95.356a49.382,49.382,0,0,1-5.13-1.365l-29.3,95.16a26.214,26.214,0,0,0,9.672,28.946c9.4,6.81,26.489,16.74,54.524,25.374,28.191,8.68,48.171,10.12,59.968,9.8a26.242,26.242,0,0,0,24.4-18.494l33.01-107.2c.126-.406.236-.8.357-1.208A39.486,39.486,0,0,1,476.9,298.152Z" transform="translate(21.146 60.066)" fill="#5e5982"/>
    <path id="Path_18" data-name="Path 18" d="M325.82,309.3l.922-2.994c12.9-41.894,35.772-64.439,52.687-75.976,18.343-12.511,33.862-15.161,34.012-15.184l1.628-.263,10.2-33.123-1.593-1.522,32.511,9.852-2.47.483-9.7,31.5-.482,1.575,1.192,1.132c.113.107,11.452,11.028,19.58,31.692,6.955,17.676,12.806,46.078,3.314,83.547a33.864,33.864,0,0,0,5.545-.317c9.3-38.171,3.184-67.241-4.031-85.449-7.1-17.928-16.335-28.688-19.584-32.13l8.3-26.949,2.96-.578a4.391,4.391,0,0,0,.431-8.512l-39.694-12.03a4.324,4.324,0,0,0-5.066,1.988,4.378,4.378,0,0,0,.76,5.391l1.993,1.9-8.284,26.9c-4.622,1.017-18.3,4.723-34.264,15.548-17.7,12.009-41.616,35.457-55.014,78.966l-.995,3.229A40.514,40.514,0,0,0,325.82,309.3Z" transform="translate(32.994 9.04)" fill="#9187a0"/>
  </g>
</svg>
