<svg xmlns="http://www.w3.org/2000/svg" width="57.766" height="57.753" viewBox="0 0 57.766 57.753">
  <path id="instagram-icon" d="M28.815,45.894A14.807,14.807,0,1,0,43.622,60.7,14.784,14.784,0,0,0,28.815,45.894Zm0,24.434A9.627,9.627,0,1,1,38.441,60.7a9.644,9.644,0,0,1-9.627,9.627Zm18.867-25.04a3.454,3.454,0,1,1-3.454-3.454A3.446,3.446,0,0,1,47.681,45.289Zm9.807,3.505c-.219-4.626-1.276-8.725-4.665-12.1s-7.475-4.433-12.1-4.665c-4.768-.271-19.06-.271-23.828,0-4.614.219-8.712,1.276-12.1,4.652S.36,44.155.128,48.781c-.271,4.768-.271,19.06,0,23.828.219,4.626,1.276,8.725,4.665,12.1s7.475,4.433,12.1,4.665c4.768.271,19.06.271,23.828,0,4.626-.219,8.725-1.276,12.1-4.665s4.433-7.475,4.665-12.1c.271-4.768.271-19.047,0-23.815Zm-6.16,28.932a9.746,9.746,0,0,1-5.49,5.49c-3.8,1.508-12.823,1.16-17.024,1.16s-13.235.335-17.024-1.16a9.746,9.746,0,0,1-5.49-5.49C4.793,73.924,5.141,64.9,5.141,60.7S4.806,47.467,6.3,43.678a9.746,9.746,0,0,1,5.49-5.49c3.8-1.508,12.823-1.16,17.024-1.16s13.235-.335,17.024,1.16a9.746,9.746,0,0,1,5.49,5.49c1.508,3.8,1.16,12.823,1.16,17.024S52.836,73.937,51.328,77.726Z" transform="translate(0.075 -31.825)" fill="#7c748f"/>
</svg>
