<svg xmlns="http://www.w3.org/2000/svg" width="412.267" height="221.732" viewBox="0 0 412.267 221.732">
  <g id="logo" transform="translate(-226.684 -211.779)">
    <path id="Path_900" data-name="Path 900" d="M380.909,270.062v-.069a40.487,40.487,0,0,1,.368-4.169,19.166,19.166,0,0,1,.859-4.167,16.4,16.4,0,0,1,1.593-3.923,13.52,13.52,0,0,1,2.82-3.064,14.1,14.1,0,0,1,3.923-1.717,20.8,20.8,0,0,1,4.167-.857,22.369,22.369,0,0,1,4.169-.246c1.471,0,2.941,0,4.29.123a19.463,19.463,0,0,1,4.046,1.1,19.772,19.772,0,0,1,4.044,1.47,14.216,14.216,0,0,1,2.82,3.188,15.819,15.819,0,0,1,1.962,3.8,28.686,28.686,0,0,1,.863,8.072,129.119,129.119,0,0,0,18.308-3.424c-.052-.351-.1-.7-.129-1.035-.123-1.471,0-2.942-.245-4.413a26.965,26.965,0,0,0-1.226-4.169c-.491-1.348-1.349-2.573-1.962-3.923a22.352,22.352,0,0,0-2.207-3.677,18.065,18.065,0,0,0-2.942-3.187,35.778,35.778,0,0,0-2.942-3.188,28.012,28.012,0,0,0-3.8-2.207,21.945,21.945,0,0,0-3.924-1.594,23.967,23.967,0,0,0-4.167-1.471,41.524,41.524,0,0,0-4.167-1.1c-.662-.111-1.324-.168-1.986-.212v-5.045h2.708a1.912,1.912,0,0,0,1.34,1.55l7.369,1.914a1.868,1.868,0,0,0,2.241-1.94v-11.53a1.87,1.87,0,0,0-2.227-1.945l-7.368,1.846a1.915,1.915,0,0,0-1.363,1.617h-2.7v-3.835a6.857,6.857,0,0,0-6.857-6.857h0a6.857,6.857,0,0,0-6.857,6.857v3.835h-.272a4.243,4.243,0,1,0,0,8.487h.272v5.237c-.537.086-1.075.174-1.584.267-1.471.245-2.942.123-4.29.49a24.043,24.043,0,0,0-4.044,1.839,21.946,21.946,0,0,0-3.924,1.594,37.575,37.575,0,0,0-3.555,2.574,23.631,23.631,0,0,0-3.432,2.7,17.624,17.624,0,0,0-2.7,3.311,18.765,18.765,0,0,0-2.084,3.8,19.492,19.492,0,0,0-1.962,3.924,20.869,20.869,0,0,0-.859,4.166,43.955,43.955,0,0,0-.98,4.292c-.051.555-.071,1.14-.089,1.728A128.057,128.057,0,0,0,380.909,270.062Z" transform="translate(29.522)" fill="#7c748f"/>
    <path id="Path_901" data-name="Path 901" d="M435.859,269.565c0-1.833-.246-1.833-.246-3.774v-.19a145.265,145.265,0,0,1-18.68,3.219,16.462,16.462,0,0,1,.169,2.363c0,2.048-.245,2.048-.245,4.1s.123,2.048.123,3.99c0,2.05-.123,2.05-.123,4.1v3.99c0,.23.006.426.015.61-.074,2.281-.136,4.361-.136,5.207a14.829,14.829,0,0,0,.127,2.087c0,.065,0,.114,0,.183v4.1a14.368,14.368,0,0,0,.118,2c-.022,1.755-.24,1.874-.24,3.819v3.99c0,2.048.367,2.048.367,4.1,0,1.941-.122,1.941-.122,3.989s-.245,2.048-.245,4.1v3.99c0,2.05.367,2.05.367,4.1v3.99a31.716,31.716,0,0,1-.367,3.667,15.152,15.152,0,0,1-.86,3.666,13.419,13.419,0,0,1-1.593,3.451,12.628,12.628,0,0,1-2.82,2.695,15.133,15.133,0,0,1-3.921,1.51,23.414,23.414,0,0,1-4.168.755,25.456,25.456,0,0,1-4.167.216c-1.471,0-2.942,0-4.29-.108a56.859,56.859,0,0,1-8.091-2.264A13.172,13.172,0,0,1,384,344.4a13.431,13.431,0,0,1-1.962-3.343,16.547,16.547,0,0,1-.736-3.667,19.191,19.191,0,0,1-.123-3.774c0-2.05-.122-2.05-.122-3.99,0-2.048.245-2.048.245-4.1s-.245-2.048-.245-3.99c0-2.05.245-2.05.245-4.1s-.123-2.048-.123-3.989c0-2.05.123-2.05.123-4.1v-3.99c0-.23-.006-.426-.015-.61.074-2.281.136-4.361.136-5.207a14.864,14.864,0,0,0-.127-2.089c0-.063,0-.113,0-.181v-4.1a14.368,14.368,0,0,0-.118-2c.022-1.755.24-1.875.24-3.819v-3.99c0-2.048-.367-2.048-.367-4.1,0-1.941.122-1.941.122-3.99s.245-2.05.245-4.1v-1.864a140.121,140.121,0,0,1-18.994-2.862c.023,1.3.116,1.515.116,3.109,0,1.941-.122,1.941-.122,3.774,0,1.941.122,1.941.122,3.882,0,1.833.123,1.833.123,3.774s-.368,1.941-.368,3.774a8.957,8.957,0,0,0,.1,1.476c-.035.9-.1,1.245-.1,2.616,0,1.175.045,1.64.08,2.254a9.212,9.212,0,0,0-.08,1.31V313.1c0,1.833.368,1.833.368,3.774,0,.046.009.1.013.142a10.747,10.747,0,0,0-.258,2.36c0,1.833-.123,1.833-.123,3.774,0,1.833.246,1.833.246,3.774V330.7c0,1.941-.123,1.941-.123,3.882a35.536,35.536,0,0,0,.491,3.774c.122,1.295,0,2.588.245,3.882a21.431,21.431,0,0,0,1.226,3.667c.49,1.185,1.348,2.264,1.961,3.45a19.386,19.386,0,0,0,2.207,3.234,16.961,16.961,0,0,0,2.942,2.8,33.566,33.566,0,0,0,2.942,2.8,29.145,29.145,0,0,0,3.8,1.942,23.667,23.667,0,0,0,3.923,1.4,26.234,26.234,0,0,0,4.167,1.293c1.349.324,2.7.755,4.169.971s2.942.216,4.413.324c1.348.107,2.819.431,4.29.431s2.942-.324,4.29-.431c1.471-.108,2.941-.324,4.29-.539,1.471-.216,2.942-.108,4.29-.431a25.9,25.9,0,0,0,4.046-1.617,23.746,23.746,0,0,0,3.922-1.4,37.877,37.877,0,0,0,3.555-2.265,23.457,23.457,0,0,0,3.433-2.372,20.884,20.884,0,0,0,4.78-6.255,13.5,13.5,0,0,0,2.82-7.117,34.648,34.648,0,0,0,.98-3.774,37.592,37.592,0,0,0,.123-3.774c0-1.941-.123-1.941-.123-3.882,0-1.833.123-1.833.123-3.774s-.123-1.941-.123-3.774c0-1.941.123-1.941.123-3.774,0-1.941-.123-1.941-.123-3.882,0-1.833-.122-1.833-.122-3.774s.368-1.941.368-3.774a9.107,9.107,0,0,0-.1-1.476c.034-.9.1-1.245.1-2.616,0-1.175-.045-1.64-.08-2.254a9.4,9.4,0,0,0,.08-1.31V279.615c0-1.833-.368-1.833-.368-3.774,0-.046-.009-.1-.013-.144a10.721,10.721,0,0,0,.258-2.359C435.736,271.506,435.859,271.506,435.859,269.565Z" transform="translate(29.538 11.722)" fill="#2eb0a2"/>
    <path id="Path_902" data-name="Path 902" d="M227.317,340.09a20.374,20.374,0,0,1,3.441-3.176c2.089-1.588,4.055-3.176,6.144-4.763a2.03,2.03,0,0,1,1.964-.729c.368,0,.611.369.856.615,1.711,1.6,3.3,3.32,4.888,5.04a15.941,15.941,0,0,0,2.811,2.951,18.115,18.115,0,0,0,3.795,1.85,20.838,20.838,0,0,0,3.919,1.238,22.762,22.762,0,0,0,4.166.748,15.713,15.713,0,0,0,4.292-.722,9.935,9.935,0,0,0,4.05-1.459,8.173,8.173,0,0,0,3.074-3.055,7.668,7.668,0,0,0,.026-8.7A11.575,11.575,0,0,0,267.2,326.6a26.85,26.85,0,0,0-4.161-2.587c-1.346-.617-2.939-1.112-4.652-1.852-2.326-.989-2.2-.988-4.53-1.975-1.346-.617-2.57-1.357-3.916-1.973-1.224-.617-2.571-1.112-3.795-1.851s-2.324-1.723-3.424-2.462A36.627,36.627,0,0,1,239.3,311.2a33.05,33.05,0,0,1-2.934-2.951,38.1,38.1,0,0,1-2.194-3.807,18.681,18.681,0,0,1-1.582-3.927,37.412,37.412,0,0,1-.6-4.17c-.118-1.349-.114-2.82-.11-4.292a27.385,27.385,0,0,1,.258-4.534,24.587,24.587,0,0,1,1.24-4.287,37.338,37.338,0,0,1,1.728-3.918c.616-1.1,1.721-1.589,2.214-2.69.123-.246.124-.491.247-.736a4.211,4.211,0,0,1,1.967-1.587c1.72-1.1,3.071-2.566,4.914-3.541a32.163,32.163,0,0,1,6.5-2.432l2.577-.727c3.68-.848,7.85-1.571,11.647-.7a30.283,30.283,0,0,1,10.652,4.446c3.549,2.218,7.464,4.681,9.906,8.12a1.835,1.835,0,0,1,.365.859c.121.369-.124.614-.125.982l0,1.225c-.127,1.226-1.845,1.956-2.7,2.444a20,20,0,0,0-3.073,2.565,9.823,9.823,0,0,0-1.6,1.589,9.383,9.383,0,0,1-2.213,2.2c-3.193,1.952-5.02-2.221-6.731-3.943-2.321-2.336-5.5-4.306-8.812-4.439a10.738,10.738,0,0,0-5.152.965c-.982.365-3.435,1.338-4.052,2.317a8.64,8.64,0,0,0-.371.979c-.247.613-.739,1.1-.985,1.713-.986,1.836-.384,5.269.469,6.989a8.732,8.732,0,0,0,2.809,3.2,34.726,34.726,0,0,0,3.793,2.218c1.1.616,2.448,1.357,3.795,1.974,2.326.986,2.449.865,4.775,1.852,1.47.617,2.817,1.235,4.162,1.851,1.347.74,2.939,1.113,4.162,1.852,1.47.739,2.693,1.724,3.916,2.464,1.223.984,2.568,1.723,3.668,2.707A26.909,26.909,0,0,1,285,317.34a25.773,25.773,0,0,1,2.563,3.808,14.767,14.767,0,0,1,1.459,4.3c.486,1.349,1.34,2.7,1.458,4.294a28.65,28.65,0,0,1,.353,4.659,26.951,26.951,0,0,1-.626,4.534,29.068,29.068,0,0,1-1.117,4.41,20.38,20.38,0,0,1-1.851,4.041,27.716,27.716,0,0,1-2.83,3.546,27.22,27.22,0,0,1-3.32,3.177,40.45,40.45,0,0,1-3.807,2.44,42.381,42.381,0,0,1-4.173,1.7c-1.472.486-2.823.972-4.417,1.336-1.472.24-2.943.358-4.538.6-1.472.118-2.943.236-4.538.231-1.471,0-2.94-.253-4.289-.38-1.47-.127-2.941-.255-4.411-.5a41.4,41.4,0,0,1-4.165-1.117,19.849,19.849,0,0,1-4.041-1.606,23.449,23.449,0,0,1-4.039-1.728,36.573,36.573,0,0,1-3.3-2.829,24.4,24.4,0,0,1-3.3-2.707,38.274,38.274,0,0,1-3.177-3.075c-.855-1.228-1.218-2.7-1.95-3.927A2.1,2.1,0,0,1,227.317,340.09Z" transform="translate(0 11.919)" fill="#2eb0a2"/>
    <path id="Path_903" data-name="Path 903" d="M284.693,313.91c0-1.593-.245-3.064-.123-4.657a28.087,28.087,0,0,1,.859-4.413c.246-1.594.613-3.065.982-4.536.49-1.471.98-2.819,1.593-4.29a30.018,30.018,0,0,1,1.716-4.169,41.35,41.35,0,0,1,2.33-3.923,27.656,27.656,0,0,1,3.065-3.432,25.494,25.494,0,0,1,2.942-3.433,40.456,40.456,0,0,1,3.432-3.064,34.006,34.006,0,0,1,3.555-2.7c1.348-.859,2.574-1.716,3.922-2.451a25.708,25.708,0,0,1,4.292-1.594,44.96,44.96,0,0,1,4.289-1.716c1.471-.368,2.942-.613,4.413-.98,1.471-.246,2.943-.736,4.536-.859,1.471-.123,2.942.245,4.536.245,1.47,0,3.064-.368,4.412-.368,1.594.123,3.065.246,4.536.491s2.819.859,4.29,1.226a43.846,43.846,0,0,1,4.29.98c1.349.613,2.82,1.225,4.046,1.839a28.245,28.245,0,0,1,7.233,5.271,37.862,37.862,0,0,1,2.942,3.31,37.877,37.877,0,0,1,3.065,3.187,2.851,2.851,0,0,1-.614,3.8c-1.716,1.226-1.716,1.1-3.432,2.33s-1.839.98-3.556,2.084c-1.593,1.225-1.593,1.348-3.187,2.574a2.421,2.421,0,0,1-3.432-.614,20.566,20.566,0,0,0-3.065-3.555,30.657,30.657,0,0,0-3.8-2.819,27.5,27.5,0,0,0-4.413-1.716,27.924,27.924,0,0,0-4.536-1.471,31.147,31.147,0,0,0-4.78,0,27.443,27.443,0,0,0-4.536.245,25.708,25.708,0,0,0-4.413.857,24.944,24.944,0,0,0-4.167,1.717,27.032,27.032,0,0,0-3.556,2.7,26.463,26.463,0,0,0-3.309,3.064,20.623,20.623,0,0,0-2.574,3.8,29.52,29.52,0,0,0-2.085,3.923,24.391,24.391,0,0,0-1.593,4.167c-.368,1.471-.614,2.942-.859,4.413-.122,1.471,0,2.942,0,4.535,0,1.471-.245,3.065-.122,4.536a28.41,28.41,0,0,0,.98,4.413,24.982,24.982,0,0,0,1.348,4.29,41.983,41.983,0,0,0,2.085,4.046,37.814,37.814,0,0,0,2.819,3.433,43.279,43.279,0,0,0,3.064,3.432,28.887,28.887,0,0,0,7.968,4.29,28.94,28.94,0,0,0,4.413,1.1,27.709,27.709,0,0,0,4.536.123c1.47,0,2.941-.123,4.29-.245a21.147,21.147,0,0,0,4.167-.736,19.241,19.241,0,0,0,3.923-1.84,35.326,35.326,0,0,0,3.678-2.084,24.418,24.418,0,0,0,2.942-3.187,33.73,33.73,0,0,0,2.7-3.187c.736-1.1,2.328-1.1,3.555-.368,1.716,1.226,1.839.859,3.678,2.084,1.716,1.226,1.594,1.226,3.31,2.451,1.716,1.1,1.839,1.1,3.555,2.33a2.658,2.658,0,0,1,.491,3.678c-.982,1.225-1.962,2.33-3.065,3.555a40.492,40.492,0,0,1-3.187,3.31,27.692,27.692,0,0,1-3.556,3.065,42.925,42.925,0,0,1-3.923,2.573c-1.348.737-2.941,1.1-4.29,1.717a32.075,32.075,0,0,1-4.413,1.594,27.247,27.247,0,0,1-4.535,1.1c-1.471.245-3.065.614-4.658.737-1.471.122-3.065,0-4.658,0s-3.065.122-4.536,0c-1.593-.123-3.065-.369-4.536-.614-1.593-.368-3.064-.613-4.535-1.1a25.307,25.307,0,0,1-4.29-1.471,25.907,25.907,0,0,1-4.046-2.207,25.286,25.286,0,0,1-4.169-1.839,28.228,28.228,0,0,1-3.555-2.942,26.844,26.844,0,0,1-3.309-3.187c-1.1-1.1-2.085-2.207-3.065-3.31-.982-1.226-2.207-2.205-3.065-3.432-.857-1.349-1.225-2.82-1.961-4.169-.613-1.348-1.348-2.7-1.962-4.167-.491-1.349-.98-2.819-1.471-4.29-.368-1.471-.736-2.942-.98-4.413s-.982-2.942-1.1-4.536C284.325,316.975,284.693,315.381,284.693,313.91Z" transform="translate(12.576 12.152)" fill="#2eb0a2"/>
    <path id="Path_904" data-name="Path 904" d="M436.9,271.948a2.514,2.514,0,0,1,2.574-2.574c2.207,0,2.207.122,4.536.122,2.205,0,2.205-.245,4.535-.245h4.536c2.207,0,2.207-.123,4.536-.123,2.205,0,2.205.123,4.534.123,2.208,0,2.208.245,4.536.245h4.535c1.594,0,3.065-.122,4.536,0a24.872,24.872,0,0,1,4.536.859,23.183,23.183,0,0,1,4.413,1.226,31.676,31.676,0,0,1,4.044,2.328,19.758,19.758,0,0,1,3.433,2.942,27.043,27.043,0,0,1,3.188,3.31,18.566,18.566,0,0,1,1.716,4.29,18.748,18.748,0,0,1,1.471,4.413,28.57,28.57,0,0,1,.49,4.658,19.618,19.618,0,0,1-.982,4.658,19.883,19.883,0,0,1-1.593,4.536,17.22,17.22,0,0,1-2.7,3.923A14.822,14.822,0,0,1,490.1,309.7a23.737,23.737,0,0,1-4.413,1.839c-.245,0-.122.491.124.491a37.521,37.521,0,0,1,3.923,1.594,29,29,0,0,1,3.923,1.716,25.038,25.038,0,0,1,3.433,2.574,26.544,26.544,0,0,1,2.573,3.555,27.428,27.428,0,0,1,1.84,3.8,15.609,15.609,0,0,1,.613,4.167,24.21,24.21,0,0,1,.49,4.29,26.465,26.465,0,0,1-.123,4.413,23.609,23.609,0,0,1-1.348,4.169,39.518,39.518,0,0,1-1.716,4.044,32.01,32.01,0,0,1-2.451,3.679A18.278,18.278,0,0,1,493.9,353.1a19.4,19.4,0,0,1-3.556,2.7,20.008,20.008,0,0,1-4.046,1.717,43.821,43.821,0,0,1-4.29.98,43.8,43.8,0,0,1-4.292,1.1c-1.347.123-2.941,0-4.412,0-2.085,0-2.085.245-4.167.245-2.208,0-2.208-.367-4.292-.367s-2.084.122-4.29.122H452.1c-2.084,0-2.084.245-4.169.245h-8.458a2.937,2.937,0,0,1-2.819-2.819c0-2.328.245-2.328.245-4.536s.122-2.205.122-4.412c0-2.33-.245-2.33-.245-4.535v-4.413c0-2.33.245-2.33.245-4.536s-.49-2.207-.49-4.413c0-2.33.49-2.33.49-4.536s-.245-2.205-.245-4.412c0-2.33-.245-2.33-.245-4.536s.123-2.207.123-4.413c0-2.328.122-2.328.122-4.535v-8.95c0-2.207.123-2.207.123-4.535,0-2.207.122-2.207.122-4.413s-.367-2.207-.367-4.535v-8.948C436.776,274.155,436.9,274.155,436.9,271.948Zm32,33.22a15.076,15.076,0,0,0,4.29-.613,10,10,0,0,0,4.045-1.594,8.8,8.8,0,0,0,2.453-3.433,10.975,10.975,0,0,0,.857-4.167,10.35,10.35,0,0,0-.857-4.046,7.067,7.067,0,0,0-2.085-3.433,8.543,8.543,0,0,0-3.555-2.082,21.91,21.91,0,0,0-4.169-.369c-1.961,0-1.961.245-3.923.245h-4.045c-1.961,0-1.961.124-3.923.124a2.519,2.519,0,0,0-2.7,2.451c0,2.328-.123,2.328-.123,4.78,0,2.33.368,2.33.368,4.659s-.368,2.328-.368,4.658a2.727,2.727,0,0,0,2.819,2.574c2.82,0,2.82-.246,5.517-.123C466.2,304.8,466.2,305.169,468.894,305.169Zm3.433,38.247a10.735,10.735,0,0,0,3.921-.859,10.4,10.4,0,0,0,3.679-1.839,13.674,13.674,0,0,0,2.451-3.31,9.484,9.484,0,0,0,1.348-3.678,11.218,11.218,0,0,0-.123-4.044,10.631,10.631,0,0,0-1.348-3.924,9.583,9.583,0,0,0-2.819-3.064,13.117,13.117,0,0,0-3.8-1.594,23.131,23.131,0,0,0-4.167-.245h-4.536c-2.207,0-2.207.122-4.412.122s-2.208-.245-4.536-.245a2.83,2.83,0,0,0-2.819,2.7c0,2.205.368,2.205.368,4.29,0,2.207-.368,2.207-.368,4.29,0,2.207.368,2.207.368,4.29,0,2.207.122,2.207.122,4.292,0,1.471.859,2.819,2.33,2.819,2.451,0,2.451.123,4.781.123s2.328-.247,4.781-.247C469.874,343.416,469.874,343.416,472.327,343.416Z" transform="translate(45.705 12.491)" fill="#2eb0a2"/>
    <g id="Group_30" data-name="Group 30" transform="translate(230.39 400.042)">
      <path id="Path_905" data-name="Path 905" d="M231.4,366.625c.529,0,.529.044,1.1.044.527,0,.527.133,1.1.133.529,0,.529-.045,1.1-.045s.572-.044,1.1-.044c.574,0,.574.044,1.1.044a1.671,1.671,0,0,1,1.542,1.542c0,.529.044.529.044,1.057s-.088.529-.088,1.013c0,.529.132.529.132,1.056s.044.53.044,1.058-.044.527-.044,1.013c0,.527-.088.527-.088,1.057s.088.527.088,1.056-.088.53-.088,1.057c0,.485-.044.485-.044,1.013s.132.529.132,1.056.044.53.044,1.058c0,.485-.044.485-.044,1.013s.044.527.044,1.057-.044.527-.044,1.056-.088.529-.088,1.013v1.057c0,.529.088.529.088,1.057s-.088.529-.088,1.012v2.115c0,.527.088.527.088,1.057V392.3c0,.529-.044.529-.044,1.057,0,.485-.044.485-.044,1.013s.132.529.132,1.056-.044.53-.044,1.058-.044.527-.044,1.013a1.682,1.682,0,0,1-.44,1.145,1.6,1.6,0,0,1-1.146.483c-.527,0-.527-.044-1.1-.044-.529,0-.529.089-1.1.089s-.572-.133-1.1-.133h-1.1c-.572,0-.572.133-1.1.133a1.577,1.577,0,0,1-1.542-1.673c0-.486-.088-.486-.088-1.013s.088-.529.088-1.058-.044-.527-.044-1.056c0-.485-.044-.485-.044-1.013V392.3c0-.529.088-.529.088-1.057s.044-.529.044-1.012c0-.53-.044-.53-.044-1.057s-.088-.529-.088-1.058.044-.527.044-1.013c0-.527-.044-.527-.044-1.056s.088-.529.088-1.057v-1.057c0-.485-.132-.485-.132-1.013s.088-.529.088-1.056v-1.057c0-.485-.044-.485-.044-1.013s-.044-.529-.044-1.058.132-.527.132-1.056-.044-.529-.044-1.013c0-.527.044-.527.044-1.057s.044-.529.044-1.056-.044-.53-.044-1.013c0-.53-.044-.53-.044-1.057s-.088-.529-.088-1.058.132-.527.132-1.056c0-.485-.044-.485-.044-1.013V368.3a1.565,1.565,0,0,1,.44-1.1A1.7,1.7,0,0,1,231.4,366.625Z" transform="translate(-229.727 -366.317)" fill="#f16b50"/>
      <path id="Path_906" data-name="Path 906" d="M261.232,384.108c0,.53-.175.53-.175,1.1,0,.527.044.527.044,1.057s.044.529.044,1.057c0,.572.088.572.088,1.1s-.132.53-.132,1.058v2.158c0,.572.132.572.132,1.1V393.8c0,.572-.175.572-.175,1.1s.132.527.132,1.057c0,.572-.132.572-.132,1.1s.175.529.175,1.056a1.136,1.136,0,0,1-1.057,1.058c-.483,0-.483-.089-1.013-.089s-.529.089-1.056.089-.53-.177-1.013-.177c-.529,0-.529.132-1.057.132s-.529.045-1.012.045c-.53,0-.53-.177-1.058-.177a.945.945,0,0,1-1.013-.882c0-.527.133-.527.133-1.056s-.133-.529-.133-1.057.089-.529.089-1.057-.045-.529-.045-1.057-.088-.529-.088-1.057.177-.529.177-1.057-.177-.529-.177-1.057.088-.527.088-1.057c0-.572.089-.572.089-1.1s-.133-.529-.133-1.056v-1.058c0-.527-.044-.527-.044-1.057s.22-.527.22-1.057v-1.056c0-.53-.22-.53-.22-1.057s.177-.529.177-1.057-.133-.529-.133-1.058.089-.527.089-1.056-.045-.529-.045-1.057c0-.572.089-.572.089-1.1s-.133-.529-.133-1.057-.044-.529-.044-1.057.044-.529.044-1.057.133-.527.133-1.057S253,372.131,253,371.6v-1.056c0-1.013-.088-2.026-.044-3.083a.794.794,0,0,1,.264-.705,1.1,1.1,0,0,1,.352-.044,1.805,1.805,0,0,1,.705.133,2.819,2.819,0,0,0,.352.352c.486.4,1.058.572,1.542.924.4.353.353.4.749.705.4.353.4.4.793.705.4.352.4.4.793.7.4.353.44.266.882.617.4.308.308.4.7.748.4.309.483.222.88.574s.4.352.793.66c.441.353.4.353.837.705.4.308.4.308.793.66.441.309.4.353.793.661a6.024,6.024,0,0,0,.838.66c.4.352.352.4.748.749s.483.22.88.572.308.44.749.749c.4.352.4.308.793.66s.4.352.792.661c.442.352.53.22.926.572.4.308.308.44.749.749.4.352.441.308.837.616.4.352.352.4.749.749.4.308.485.22.88.572a.472.472,0,0,0,.793-.4c0-.529.133-.529.133-1.057,0-.571-.089-.571-.089-1.1s.044-.529.044-1.1c0-.529.045-.529.045-1.057,0-.572.044-.572.044-1.1s-.089-.529-.089-1.1c0-.529-.088-.529-.088-1.057v-1.1c0-.527.133-.527.133-1.1,0-.529-.133-.529-.133-1.057,0-.572.177-.572.177-1.1s-.177-.529-.177-1.058c0-.571.177-.571.177-1.1a.942.942,0,0,1,.837-1.013c.529,0,.529.133,1.056.133s.53-.133,1.058-.133h2.07c.527,0,.527-.044,1.012-.044.529,0,.529.088,1.057.088a.906.906,0,0,1,.882.969c0,.529.044.529.044,1.056s.088.53.088,1.058-.175.529-.175,1.057.175.527.175,1.057v1.056c0,.574.044.574.044,1.1s-.044.53-.044,1.057-.132.529-.132,1.058v1.056c0,.529.175.529.175,1.057s-.044.53-.044,1.057.044.529.044,1.057-.175.529-.175,1.1v1.057c0,.529.088.529.088,1.057s-.044.529-.044,1.057-.044.529-.044,1.056.044.53.044,1.058.088.529.088,1.057v1.057c0,.527.044.527.044,1.1,0,.53-.175.53-.175,1.057v1.057c0,.529.132.529.132,1.058v1.057c0,.527-.044.527-.044,1.056v1.057c0,.705-.044,1.365-.044,2.025a.666.666,0,0,1-.088.442.636.636,0,0,1-.661.219,5.143,5.143,0,0,1-2.289-1.409c-.4-.352-.442-.308-.838-.617l-.793-.7a5.816,5.816,0,0,1-.837-.616c-.44-.309-.4-.353-.837-.661-.4-.352-.352-.4-.748-.748-.4-.309-.354-.353-.794-.705-.4-.308-.44-.22-.88-.572-.4-.309-.353-.353-.793-.661a10.284,10.284,0,0,0-.793-.66c-.4-.353-.485-.264-.88-.617-.4-.308-.308-.44-.705-.748-.4-.353-.483-.22-.924-.574-.4-.308-.309-.44-.705-.792a10.235,10.235,0,0,1-.792-.661c-.4-.308-.486-.264-.882-.572-.4-.352-.308-.44-.749-.749-.4-.352-.485-.22-.88-.572s-.4-.352-.793-.705c-.4-.308-.308-.4-.7-.748-.442-.352-.442-.308-.838-.661s-.483-.264-.88-.572A.472.472,0,0,0,261.232,384.108Z" transform="translate(-224.678 -366.317)" fill="#f16b50"/>
      <path id="Path_907" data-name="Path 907" d="M291.09,393.1a8.9,8.9,0,0,0,.837-.529c.4-.308.353-.352.749-.66s.308-.4.7-.705a5.569,5.569,0,0,0,.882-.485c.4-.308.352-.352.749-.661s.44-.264.837-.572a1.064,1.064,0,0,1,1.321.089c.219.263.44.483.705.749a5.021,5.021,0,0,0,.748.616c.264.219.529.44.793.617a4.426,4.426,0,0,0,.924.44,6.31,6.31,0,0,0,.969.308c.308.044.66.044,1.013.088a7.248,7.248,0,0,0,1.012.088,7.714,7.714,0,0,0,1.057-.132,3.751,3.751,0,0,0,1.057-.177,3.021,3.021,0,0,0,1.013-.4,2.007,2.007,0,0,0,.705-.793,2.081,2.081,0,0,0,.219-1.057,1.981,1.981,0,0,0-.308-1.056,2.7,2.7,0,0,0-.792-.794,6.452,6.452,0,0,0-.969-.572c-.352-.132-.705-.264-1.1-.4-.441-.132-.485-.044-.969-.175-.485-.177-.44-.264-.924-.441a7.7,7.7,0,0,0-.969-.219c-.483-.177-.483-.22-.926-.4-.352-.09-.7-.178-1.012-.266-.353-.133-.617-.441-.924-.572s-.705-.175-1.013-.308c-.308-.175-.529-.485-.837-.661-.309-.219-.617-.352-.882-.572-.308-.219-.483-.529-.748-.749-.222-.264-.574-.44-.793-.7a9.374,9.374,0,0,1-.485-.926,9.986,9.986,0,0,1-.572-.879c-.133-.353-.22-.661-.352-1.013a6.8,6.8,0,0,1-.177-1.013,8.7,8.7,0,0,1-.132-1.058,7.4,7.4,0,0,1-.177-1.056,7.885,7.885,0,0,1,.088-1.013,6.92,6.92,0,0,1,.133-1.013,8.45,8.45,0,0,1,.264-1.013l.4-.924a9.1,9.1,0,0,1,.485-.924,9.474,9.474,0,0,1,.572-.837c.22-.265.4-.574.616-.837.266-.22.572-.4.837-.616a5.65,5.65,0,0,1,.838-.617c.308-.177.616-.308.924-.485.263-.132.572-.353.88-.485a8.531,8.531,0,0,1,.969-.352c.352-.088.7-.044,1.056-.132.309-.089.661-.133.969-.22.352-.044.705-.133,1.013-.177.352,0,.7-.088,1.057-.088a7.488,7.488,0,0,1,1.012.044c.352,0,.706.044,1.058.044.307.044.66.089,1.013.133a6.3,6.3,0,0,1,.968.352,6.843,6.843,0,0,1,1.013.219,7.129,7.129,0,0,1,1.013.177,7.574,7.574,0,0,1,.879.53,4.444,4.444,0,0,1,.926.44,6.152,6.152,0,0,1,.926.483,5.725,5.725,0,0,1,.835.574c.265.22.442.529.705.748a.973.973,0,0,1,.133,1.321c-.352.4-.352.4-.749.794-.353.4-.441.308-.837.66-.352.4-.352.4-.749.793-.352.352-.308.44-.66.837-.4.353-.441.308-.838.66a.756.756,0,0,1-1.145.089A6.539,6.539,0,0,0,308,374.7a4.024,4.024,0,0,0-.925-.574,7.414,7.414,0,0,0-1.057-.263,4.093,4.093,0,0,0-1.056-.264,8.514,8.514,0,0,0-1.057.044,8.617,8.617,0,0,0-1.1.088,3.46,3.46,0,0,0-1.014.352,2.634,2.634,0,0,0-.835.705,2.059,2.059,0,0,0-.132,1.056,2.153,2.153,0,0,0,.263,1.1,2.5,2.5,0,0,0,.793.88,6.567,6.567,0,0,0,1.189.308,7.763,7.763,0,0,0,1.057.441,9.925,9.925,0,0,1,1.058.4l1.057.352,1.056.352c.353.132.705.308,1.013.44.352.134.749.134,1.057.265a7.042,7.042,0,0,1,1.012.44c.353.177.617.4.926.572.308.22.661.4.926.574.308.219.66.4.924.616.264.263.485.572.705.837a5.442,5.442,0,0,1,.616.88,5.8,5.8,0,0,1,.66.88,4.778,4.778,0,0,1,.308,1.058,10.108,10.108,0,0,1,.441,1.012,27.665,27.665,0,0,0,.044,2.2,1012.635,1012.635,0,0,1-.177,2.115c-.088.352-.088.7-.175,1.056a6.8,6.8,0,0,1-.308,1.013,7.206,7.206,0,0,1-.44,1.013,5.3,5.3,0,0,1-.574.924,6.437,6.437,0,0,1-.793.705,4.031,4.031,0,0,1-.749.748,10.261,10.261,0,0,1-.792.661,5.344,5.344,0,0,1-.926.572,7.775,7.775,0,0,1-1.057.309c-.308.132-.616.352-.969.483-.308.088-.66.088-1.012.177a8.446,8.446,0,0,1-1.1.132c-.308.044-.661.132-1.013.177a8.882,8.882,0,0,1-1.1.044c-.308,0-.66.175-1.056.175a10.643,10.643,0,0,1-1.1-.132,9.212,9.212,0,0,1-1.1,0,9.335,9.335,0,0,1-1.058-.264c-.352-.044-.7-.132-1.056-.177-.353-.088-.749-.044-1.1-.132s-.705-.308-1.013-.4c-.352-.133-.7-.309-1.013-.441-.352-.133-.748-.177-1.056-.308a6.832,6.832,0,0,1-.926-.616,4.783,4.783,0,0,1-.926-.574c-.308-.22-.616-.44-.88-.66a6.393,6.393,0,0,1-.749-.793,5.943,5.943,0,0,1-.7-.837A.852.852,0,0,1,291.09,393.1Z" transform="translate(-216.441 -366.372)" fill="#f16b50"/>
      <path id="Path_908" data-name="Path 908" d="M331.426,373.979c-.529,0-.529.044-1.1.044s-.574.044-1.1.044H328.08c-.529,0-.529-.044-1.1-.044s-.572-.088-1.1-.088h-1.145a.856.856,0,0,1-.882-.882c0-.527-.132-.527-.132-1.056,0-.574.175-.574.175-1.1s-.044-.529-.044-1.057v-1.1c0-.527-.088-.527-.088-1.056a1.049,1.049,0,0,1,.969-1.013c.527,0,.527.044,1.056.044s.53.089,1.057.089c.486,0,.486-.045,1.013-.045s.529-.132,1.057-.132.529.132,1.012.132c.53,0,.53.045,1.058.045s.529-.133,1.057-.133c.483,0,.483-.044,1.013-.044s.527.132,1.056.132.529-.044,1.057-.044c.485,0,.485-.044,1.013-.044h2.069c.53,0,.53.133,1.057.133s.529-.177,1.058-.177c.483,0,.483.132,1.013.132s.527-.044,1.056-.044.529-.088,1.013-.088c.527,0,.527.177,1.057.177h4.139a.867.867,0,0,1,.924.88c0,.529-.044.529-.044,1.056s.044.53.044,1.1c0,.529.089.529.089,1.057V372c0,.529-.045.529-.045,1.056a1.015,1.015,0,0,1-.968,1.013c-.529,0-.529-.132-1.1-.132s-.572.088-1.1.088H344.2c-.529,0-.529-.088-1.1-.088H342a1.055,1.055,0,0,0-1.013,1.013c0,.529-.045.529-.045,1.057s.089.529.089,1.056.088.53.088,1.057-.088.529-.088,1.058.044.527.044,1.057-.133.527-.133,1.056c0,.485.089.485.089,1.013s.088.529.088,1.057-.132.529-.132,1.057-.045.529-.045,1.057.045.529.045,1.057.088.527.088,1.057.044.527.044,1.057-.088.529-.088,1.056.044.53.044,1.057.044.529.044,1.058-.132.527-.132,1.057-.045.527-.045,1.056.045.529.045,1.057.088.529.088,1.057-.044.529-.044,1.057-.089.529-.089,1.057a.857.857,0,0,1-.835.924c-.574,0-.574.089-1.146.089s-.572-.089-1.1-.089c-.572,0-.572.044-1.145.044s-.572-.044-1.146-.044-.571.044-1.1.044h-1.145a1.007,1.007,0,0,1-.969-.968c0-.529.044-.529.044-1.057s.044-.529.044-1.057-.044-.529-.044-1.057-.044-.529-.044-1.057v-1.056c0-.53-.045-.53-.045-1.057s.045-.53.045-1.058V389.7c0-.527.044-.527.044-1.056s-.044-.53-.044-1.057-.045-.53-.045-1.057.045-.529.045-1.057.044-.529.044-1.057.044-.529.044-1.057-.133-.529-.133-1.057c0-.483.089-.483.089-1.013s-.089-.529-.089-1.056.045-.53.045-1.057-.045-.53-.045-1.058.133-.527.133-1.057-.133-.527-.133-1.056.133-.529.133-1.057A1.016,1.016,0,0,0,331.426,373.979Z" transform="translate(-209.255 -366.317)" fill="#f16b50"/>
      <path id="Path_909" data-name="Path 909" d="M366.515,399.11c-.529,0-.529-.044-1.1-.044s-.572.133-1.1.133c-.571,0-.571.044-1.143.044-.53,0-.53-.088-1.1-.088h-1.1c-.571,0-.571.088-1.145.088a1.057,1.057,0,0,1-.968-1.057c0-.529.088-.529.088-1.056s-.132-.53-.132-1.058.088-.529.088-1.057c0-.483-.131-.483-.131-1.013s.131-.527.131-1.056v-1.057c0-.53.044-.53.044-1.057s-.044-.529-.044-1.058c0-.483-.088-.483-.088-1.012V387.7c0-.529-.044-.529-.044-1.057V385.59c0-.529.131-.529.131-1.056v-1.013c0-.529-.088-.529-.088-1.057s-.044-.529-.044-1.058.175-.527.175-1.056-.132-.529-.132-1.057c0-.483.044-.483.044-1.013s.088-.529.088-1.057-.044-.529-.044-1.056.044-.53.044-1.058-.175-.527-.175-1.013c0-.527.088-.527.088-1.057s-.088-.527-.088-1.056.175-.529.175-1.057v-1.057c0-.529-.175-.529-.175-1.057,0-.485.088-.485.088-1.012a.913.913,0,0,1,.968-.926c.574,0,.574-.177,1.1-.177.572,0,.572.044,1.1.044h1.1c.571,0,.571-.044,1.1-.044.574,0,.574.133,1.1.133.574,0,.574.044,1.1.044.571,0,.571-.133,1.1-.133h1.1c.572,0,.572.089,1.1.089.572,0,.572.044,1.1.044.572,0,.572-.177,1.1-.177a9.117,9.117,0,0,1,1.057.22c.4,0,.749.044,1.1.044a8.513,8.513,0,0,1,1.057.044,5.427,5.427,0,0,1,1.013.4c.4.09.748.134,1.057.222.352.132.7.264,1.012.4a6.605,6.605,0,0,1,.969.485,10.8,10.8,0,0,1,.925.572,9.269,9.269,0,0,1,.835.66c.264.22.574.441.794.661.263.264.483.572.7.837a10.006,10.006,0,0,1,.572.882,10.775,10.775,0,0,1,.616.923c.133.309.308.661.441.969a9.063,9.063,0,0,1,.264,1.057c.089.352.22.7.308,1.058a8.522,8.522,0,0,1,.044,1.056,8.966,8.966,0,0,1,0,1.1c0,.352.089.705.089,1.057a7.515,7.515,0,0,1-.352,1.057,9.053,9.053,0,0,1-.089,1.1,6.56,6.56,0,0,1-.353,1.013,6.666,6.666,0,0,1-.483.969,10.538,10.538,0,0,1-.529.968c-.219.264-.529.485-.793.749-.22.264-.4.572-.66.837-.265.22-.617.4-.926.616a8.563,8.563,0,0,1-.925.529,1.12,1.12,0,0,0-.352,1.41c.264.483.264.44.529.924a9.076,9.076,0,0,1,.574.837c.263.441.175.485.44.924.264.485.4.4.661.837s.22.441.484.926c.264.441.177.485.441.924a9.488,9.488,0,0,0,.572.838c.264.483.22.483.485.924l.527.88c.222.485.309.4.574.882l.529.879a.507.507,0,0,1-.485.749c-.572,0-.572.089-1.145.089h-2.247c-.572,0-.572-.044-1.144-.044s-.574-.089-1.1-.089c-.572,0-.572.133-1.145.133s-.572-.089-1.145-.089a.976.976,0,0,1-.88-.44c-.265-.441-.309-.441-.574-.88-.219-.441-.088-.529-.352-1.014l-.527-.879c-.265-.486-.353-.4-.617-.882-.264-.44-.22-.44-.485-.926-.264-.44-.264-.44-.529-.923a9.062,9.062,0,0,0-.529-.882c-.264-.44-.22-.44-.483-.926-.264-.44-.177-.483-.442-.968-.263-.441-.308-.441-.571-.88a.934.934,0,0,0-.882-.441c-.66,0-.66.044-1.365.044a.868.868,0,0,0-.924.88c0,.53-.044.53-.044,1.013v1.057c0,.485.044.485.044,1.013,0,.485-.088.485-.088,1.012s-.044.53-.044,1.013c0,.529.132.529.132,1.013,0,.529.044.529.044,1.058,0,.483-.175.483-.175,1.012A.878.878,0,0,1,366.515,399.11Zm4.977-16.646a7.282,7.282,0,0,0,1.012-.045,6.148,6.148,0,0,0,.969-.352,3.155,3.155,0,0,0,.88-.4,5.227,5.227,0,0,0,.793-.574,5.882,5.882,0,0,0,.529-.879,6.227,6.227,0,0,0,.177-.969,3.453,3.453,0,0,0,.175-.969,7.608,7.608,0,0,0,0-1.013,3.51,3.51,0,0,0-.441-.924,2.753,2.753,0,0,0-.44-.88,2.6,2.6,0,0,0-.793-.572,5.961,5.961,0,0,0-.88-.53,6.252,6.252,0,0,0-.969-.219,7.066,7.066,0,0,0-1.012-.089h-1.013c-.486,0-.486.089-.969.089H368.5a.94.94,0,0,0-.924.968v1.058c0,.527-.132.527-.132,1.056s.044.529.044,1.057.044.53.044,1.057.044.529.044,1.057-.132.529-.132,1.012a1.024,1.024,0,0,0,1.056.969c.485,0,.485.044,1.013.044.483,0,.483.089.969.089C371.006,382.508,371.006,382.464,371.492,382.464Z" transform="translate(-201.623 -366.301)" fill="#f16b50"/>
      <path id="Path_910" data-name="Path 910" d="M394.33,386.683c0-.527-.044-.527-.044-1.057s.133-.529.133-1.012c0-.53-.044-.53-.044-1.057s-.045-.529-.045-1.057.045-.529.045-1.057-.089-.529-.089-1.057-.044-.529-.044-1.057.177-.527.177-1.057c0-.483-.044-.483-.044-1.013s.044-.529.044-1.056v-1.057c0-.529-.133-.529-.133-1.058s.089-.527.089-1.057-.089-.527-.089-1.056.089-.529.089-1.013c0-.529.044-.529.044-1.057s-.089-.529-.089-1.056-.044-.53-.044-1.057a.912.912,0,0,1,1.013-.838c.572,0,.572-.22,1.1-.22.571,0,.571.177,1.144.177s.574-.044,1.146-.044.572.044,1.1.044h1.145c.572,0,.572-.132,1.146-.132a1.016,1.016,0,0,1,.968,1.013c0,.527-.133.527-.133,1.057s.178.527.178,1.012c0,.529-.09.529-.09,1.057s.09.529.09,1.057-.045.529-.045,1.056c0,.486-.089.486-.089,1.013s.134.53.134,1.057-.178.529-.178,1.058.044.527.044,1.056c0,.485-.044.485-.044,1.013s.178.529.178,1.057-.09.529-.09,1.057-.088.529-.088,1.012c0,.53.133.53.133,1.057s-.089.53-.089,1.058.089.527.089,1.057c0,.483.045.483.045,1.012s-.134.529-.134,1.057a8.174,8.174,0,0,0,.178,1.013,7.382,7.382,0,0,0,.132.969,6.94,6.94,0,0,0,.177,1.012,5.328,5.328,0,0,0,.616.793,5.1,5.1,0,0,0,.616.749c.264.219.441.529.749.661a4.135,4.135,0,0,0,.969.307,6.056,6.056,0,0,0,.969.264,7.475,7.475,0,0,0,1.012.044,7.249,7.249,0,0,0,1.013-.088,6.161,6.161,0,0,0,.969-.264c.307-.132.66-.175.923-.308a7.677,7.677,0,0,0,.882-.485,3.792,3.792,0,0,0,.572-.88,5.263,5.263,0,0,0,.529-.837c.089-.308.308-.616.4-.924.045-.309.045-.661.089-1.013a7.8,7.8,0,0,0,0-1.013c0-.529-.044-.529-.044-1.057v-1.012c0-.53.044-.53.044-1.057s.044-.529.044-1.058-.133-.527-.133-1.057c0-.483.133-.483.133-1.012s-.088-.529-.088-1.057-.045-.529-.045-1.057.045-.529.045-1.013c0-.529-.045-.529-.045-1.056V375.1c0-.527.177-.527.177-1.057v-2.069c0-.529-.132-.529-.132-1.057s.044-.529.044-1.057c0-.485.044-.485.044-1.012v-1.057a.868.868,0,0,1,.926-.882c.571,0,.571-.132,1.1-.132.572,0,.572.088,1.143.088s.574-.088,1.146-.088c.529,0,.529.088,1.1.088s.572-.088,1.146-.088.571.175,1.145.175a.9.9,0,0,1,.968.838c0,.527-.044.527-.044,1.057s.044.527.044,1.056v1.057c0,.485-.133.485-.133,1.013s.177.529.177,1.056-.177.53-.177,1.057.133.53.133,1.058-.133.527-.133,1.057.089.527.089,1.056-.044.53-.044,1.013c0,.53.132.53.132,1.057s-.088.529-.088,1.057v1.057c0,.529.088.529.088,1.057s-.044.529-.044,1.057-.044.527-.044,1.057c0,.483-.089.483-.089,1.012s.045.53.045,1.057c0,.352-.045.705-.045,1.057-.044.352.089.705.045,1.013-.045.352-.264.66-.308,1.012a10.917,10.917,0,0,1-.529,1.983,8.106,8.106,0,0,1-.265,1.012,9.234,9.234,0,0,1-.483.926c-.177.308-.4.574-.572.838-.22.264-.485.483-.705.748s-.44.53-.66.793c-.264.22-.441.529-.705.749a6.222,6.222,0,0,1-.924.529c-.265.177-.617.308-.926.485a5.5,5.5,0,0,1-.837.571,6.271,6.271,0,0,1-.968.4,8.2,8.2,0,0,1-1.013.175c-.352.088-.661.22-1.013.308a6.844,6.844,0,0,1-1.013.22,7.072,7.072,0,0,1-1.012.132,7.905,7.905,0,0,1-1.013.088c-.352,0-.7-.132-1.057-.132s-.705.175-1.012.175c-.354-.044-.706-.175-1.013-.219-.353-.044-.706-.044-1.058-.088a7.276,7.276,0,0,1-1.013-.089c-.352-.088-.66-.308-.968-.4a691.96,691.96,0,0,1-1.937-.705,9.335,9.335,0,0,1-.924-.483,4.655,4.655,0,0,1-.882-.529,9.382,9.382,0,0,1-.88-.53c-.264-.219-.485-.483-.705-.7a5.625,5.625,0,0,1-.749-.705,3.969,3.969,0,0,1-.7-.792,3.59,3.59,0,0,1-.53-.882,6.066,6.066,0,0,1-.44-.926,9.463,9.463,0,0,1-.483-.923c-.089-.308-.044-.706-.133-1.013a8.95,8.95,0,0,1-.353-1.014c-.044-.307-.088-.66-.132-1.012s-.088-.661-.133-1.013Z" transform="translate(-193.896 -366.293)" fill="#f16b50"/>
      <path id="Path_911" data-name="Path 911" d="M448.027,399.622c-.352,0-.705.044-1.058.044-.352-.044-.66-.132-1.012-.177s-.705-.132-1.057-.175c-.352-.088-.66-.177-1.013-.264s-.7-.132-1.012-.22c-.353-.132-.705-.132-1.057-.263-.308-.134-.574-.4-.926-.53a9.11,9.11,0,0,1-.969-.4c-.308-.177-.571-.4-.879-.574-.264-.175-.661-.264-.969-.44-.264-.22-.485-.529-.749-.748a6.165,6.165,0,0,1-.793-.706c-.264-.219-.527-.44-.793-.7-.22-.22-.441-.529-.66-.793s-.529-.483-.749-.748-.308-.617-.529-.926c-.177-.308-.352-.574-.529-.882a6.649,6.649,0,0,1-.485-.968c-.133-.309-.4-.572-.529-.924a8.369,8.369,0,0,1-.219-1.013c-.089-.352-.177-.705-.264-1.013-.088-.352-.266-.66-.353-1.012q-.066-.53-.133-1.058c-.044-.352-.044-.705-.088-1.057,0-.352.088-.7.088-1.056v-1.013c.045-.352-.088-.705-.044-1.057a6.906,6.906,0,0,1,.22-1.013c.044-.352.133-.7.177-1.012.089-.353.133-.705.22-1.013.132-.352.308-.661.44-.969a8.849,8.849,0,0,1,.441-.924,6.228,6.228,0,0,1,.4-.969c.175-.308.352-.617.529-.882a5.927,5.927,0,0,1,.615-.835,3666.595,3666.595,0,0,0,1.234-1.674c.22-.264.574-.44.793-.66.264-.22.485-.485.749-.749a5.677,5.677,0,0,1,.793-.66c.264-.22.616-.308.882-.529.308-.177.571-.441.879-.617.264-.132.617-.219.926-.4.352-.132.66-.22.969-.352a9.445,9.445,0,0,1,.968-.441,6.721,6.721,0,0,1,1.013-.22,8.186,8.186,0,0,1,.969-.308,8.835,8.835,0,0,1,1.056-.175c.309-.045.661,0,1.013-.045.352,0,.705-.132,1.057-.132s.7.044,1.057.044a8.22,8.22,0,0,1,1.1.177,8.513,8.513,0,0,1,1.057.044c.4.044.705.264,1.057.308l1.057.264a6.686,6.686,0,0,1,1.012.308c.353.133.75.177,1.057.308.353.133.706.264,1.013.4.308.175.572.483.88.66.309.22.617.353.926.572.264.22.574.441.837.66.308.22.485.574.749.794a6.4,6.4,0,0,1,.749.792c.22.265.483.53.7.793a1.1,1.1,0,0,1,.22.794,1.161,1.161,0,0,1-.4.835c-.44.308-.571.177-1.013.486-.484.308-.484.352-.967.66-.442.308-.442.352-.882.7a7.18,7.18,0,0,0-.926.661c-.483.308-.483.308-.968.66a1.241,1.241,0,0,1-.793.177,1.106,1.106,0,0,1-.66-.441,6.413,6.413,0,0,0-.749-.792,6.288,6.288,0,0,0-.837-.705A6.786,6.786,0,0,0,451.9,375a6.6,6.6,0,0,0-.926-.574,8.7,8.7,0,0,0-2.157-.4c-.353,0-.705-.044-1.1-.044a7.09,7.09,0,0,0-1.013.132,8.149,8.149,0,0,0-1.012.177,7.452,7.452,0,0,0-.969.22c-.352.177-.574.4-.882.572a5.4,5.4,0,0,0-.792.616,5.827,5.827,0,0,0-.838.617,5.741,5.741,0,0,0-.527.88,5.974,5.974,0,0,0-.574.88q-.2.462-.4.926a6.709,6.709,0,0,0-.22,1.012c-.088.309-.264.617-.352.969-.044.308,0,.661-.044,1.013,0,.352.044.66.044,1.013a8.488,8.488,0,0,0,0,1.056,7.507,7.507,0,0,0,.044,1.013c.088.352.088.7.177,1.057.131.308.219.66.352.968.131.353.308.661.44.969.177.308.441.529.661.838a5.076,5.076,0,0,0,.616.835,3.78,3.78,0,0,0,.749.705,5.736,5.736,0,0,0,.792.66,6.926,6.926,0,0,0,1.013.353,8.291,8.291,0,0,0,.926.4,8.834,8.834,0,0,0,1.056.175,7.109,7.109,0,0,0,1.013.132c.4,0,.706-.175,1.058-.175.352-.044.66-.088,1.013-.132.352-.089.7-.045,1.012-.133.353-.132.617-.353.924-.485a6.218,6.218,0,0,0,.926-.485,6.068,6.068,0,0,0,.88-.571c.22-.222.485-.486.705-.75a5.812,5.812,0,0,0,.616-.837,1.41,1.41,0,0,1,.617-.529,1.1,1.1,0,0,1,.792.22c.486.308.53.22,1.013.529s.485.352.926.66c.483.308.483.352.968.661s.485.264.969.572.527.264,1.013.572a1.55,1.55,0,0,1,.4.749,1,1,0,0,1-.131.792,10.548,10.548,0,0,1-.617.882c-.22.264-.485.529-.7.793-.264.264-.485.529-.75.749a10.98,10.98,0,0,1-.66.88c-.263.22-.616.352-.88.572a6.079,6.079,0,0,1-.88.574c-.309.175-.53.483-.882.66a6.939,6.939,0,0,1-1.013.308c-.308.132-.615.264-.968.4a9.769,9.769,0,0,1-1.013.4,6.836,6.836,0,0,1-1.013.264,8.57,8.57,0,0,1-1.057.088,9.044,9.044,0,0,1-1.056.22c-.353.044-.705,0-1.057.044C448.776,399.665,448.423,399.622,448.027,399.622Z" transform="translate(-185.846 -366.372)" fill="#f16b50"/>
      <path id="Path_912" data-name="Path 912" d="M476.738,373.979c-.529,0-.529.044-1.1.044s-.572.044-1.1.044h-1.146c-.527,0-.527-.044-1.1-.044s-.574-.088-1.1-.088h-1.146a.857.857,0,0,1-.88-.882c0-.527-.133-.527-.133-1.056,0-.574.177-.574.177-1.1s-.044-.529-.044-1.057v-1.1c0-.527-.089-.527-.089-1.056a1.051,1.051,0,0,1,.969-1.013c.529,0,.529.044,1.057.044s.529.089,1.057.089c.485,0,.485-.045,1.013-.045s.529-.132,1.057-.132.527.132,1.013.132c.527,0,.527.045,1.056.045s.53-.133,1.057-.133c.485,0,.485-.044,1.013-.044s.529.132,1.057.132.529-.044,1.057-.044c.485,0,.485-.044,1.013-.044h2.07c.527,0,.527.133,1.056.133s.53-.177,1.057-.177c.485,0,.485.132,1.013.132s.529-.044,1.057-.044.529-.088,1.012-.088c.53,0,.53.177,1.058.177h4.139a.868.868,0,0,1,.926.88c0,.529-.044.529-.044,1.056s.044.53.044,1.1c0,.529.088.529.088,1.057V372c0,.529-.044.529-.044,1.056a1.016,1.016,0,0,1-.969,1.013c-.529,0-.529-.132-1.1-.132s-.572.088-1.1.088h-2.244c-.53,0-.53-.088-1.1-.088h-1.1a1.055,1.055,0,0,0-1.013,1.013c0,.529-.044.529-.044,1.057s.089.529.089,1.056.088.53.088,1.057-.088.529-.088,1.058.044.527.044,1.057-.133.527-.133,1.056c0,.485.089.485.089,1.013s.088.529.088,1.057-.133.529-.133,1.057-.044.529-.044,1.057.044.529.044,1.057.089.527.089,1.057.044.527.044,1.057-.088.529-.088,1.056.044.53.044,1.057.044.529.044,1.058-.133.527-.133,1.057-.044.527-.044,1.056.044.529.044,1.057.089.529.089,1.057-.044.529-.044,1.057-.089.529-.089,1.057a.857.857,0,0,1-.837.924c-.572,0-.572.089-1.145.089s-.572-.089-1.1-.089c-.572,0-.572.044-1.146.044s-.572-.044-1.143-.044-.574.044-1.1.044h-1.145a1.007,1.007,0,0,1-.969-.968c0-.529.044-.529.044-1.057s.044-.529.044-1.057-.044-.529-.044-1.057-.044-.529-.044-1.057v-1.056c0-.53-.044-.53-.044-1.057s.044-.53.044-1.058V389.7c0-.527.044-.527.044-1.056s-.044-.53-.044-1.057-.044-.53-.044-1.057.044-.529.044-1.057.044-.529.044-1.057.044-.529.044-1.057-.132-.529-.132-1.057c0-.483.088-.483.088-1.013s-.088-.529-.088-1.056.044-.53.044-1.057-.044-.53-.044-1.058.132-.527.132-1.057-.132-.527-.132-1.056.132-.529.132-1.057A1.015,1.015,0,0,0,476.738,373.979Z" transform="translate(-177.607 -366.317)" fill="#f16b50"/>
      <path id="Path_913" data-name="Path 913" d="M501.588,383.091c0-.353-.044-.705-.044-1.057.044-.4.175-.705.22-1.057a8.65,8.65,0,0,1,.177-1.057,9.283,9.283,0,0,1,.264-1.056c.088-.353.175-.661.264-1.013.132-.353.175-.706.308-1.013a9.979,9.979,0,0,1,.44-1.014,10.1,10.1,0,0,1,.53-.923c.175-.308.44-.53.66-.838a5.8,5.8,0,0,1,.616-.835c.22-.309.352-.661.572-.926.264-.264.485-.572.705-.793a10.426,10.426,0,0,1,.88-.616,5.957,5.957,0,0,1,.837-.705c.264-.22.529-.485.793-.705.309-.175.617-.4.926-.571s.616-.353.924-.53a9.445,9.445,0,0,1,.968-.44c.353-.133.749-.133,1.057-.264.352-.132.661-.222,1.013-.353.352-.088.66-.177,1.013-.264a9.6,9.6,0,0,1,1.057-.308,25.617,25.617,0,0,0,2.114-.132,9.225,9.225,0,0,1,1.1,0c.352,0,.7-.177,1.056-.177.353.044.706.177,1.058.22s.705.177,1.057.22c.352.088.7-.044,1.057.044s.7.219,1.056.308c.309.088.661.175,1.013.309s.661.352.969.483a9.452,9.452,0,0,1,.968.44,9.131,9.131,0,0,1,.969.442c.308.175.574.44.88.616.308.219.572.44.837.66s.617.4.882.616.571.441.837.705c.22.22.44.572.66.837s.485.485.705.792c.22.265.441.574.66.838.177.308.441.574.616.882a7.071,7.071,0,0,1,.309,1.056,6.553,6.553,0,0,1,.572.926,6.913,6.913,0,0,1,.264,1.013,9.716,9.716,0,0,1,.353,1.013c.088.352.263.66.352,1.012l.132,1.057c.044.352-.044.749,0,1.1,0,.352.088.7.088,1.057a8.575,8.575,0,0,1-.088,1.056,8.683,8.683,0,0,1-.132,1.058,8.944,8.944,0,0,1-.133,1.057c-.088.352,0,.748-.088,1.1a6.513,6.513,0,0,1-.441.968,9.6,9.6,0,0,1-.4,1.013,7.128,7.128,0,0,1-.837,1.938,10.394,10.394,0,0,1-.529.969c-.219.308-.44.571-.66.837-.22.308-.529.485-.749.793-.264.263-.4.572-.66.837s-.529.485-.793.7c-.264.264-.66.353-.926.574s-.572.44-.88.66c-.263.175-.529.485-.837.661s-.66.22-1.013.4c-.308.133-.572.44-.88.572-.352.132-.705.132-1.057.266-.352.088-.66.263-1.013.352a9.151,9.151,0,0,1-1.012.308,9.269,9.269,0,0,0-1.057.308,8.5,8.5,0,0,1-1.057,0c-.352.044-.705.044-1.058.088-.352,0-.7.088-1.056.088a9.626,9.626,0,0,1-1.1.044,8.588,8.588,0,0,1-1.057-.088c-.352-.044-.7-.264-1.057-.308a8.588,8.588,0,0,1-1.057-.088c-.353-.089-.661-.308-1.013-.4a7.774,7.774,0,0,1-1.057-.177,7.007,7.007,0,0,1-1.013-.4c-.308-.133-.616-.4-.924-.529-.308-.175-.661-.264-.968-.44s-.529-.53-.838-.705a9.984,9.984,0,0,0-.968-.485c-.264-.219-.574-.441-.837-.705a5.986,5.986,0,0,1-.66-.835c-.264-.22-.617-.4-.882-.661-.22-.264-.352-.616-.572-.924a6.252,6.252,0,0,1-.705-.793,5.991,5.991,0,0,1-.483-.926,9.927,9.927,0,0,1-.53-.924,10.7,10.7,0,0,1-.527-.969c-.133-.308-.089-.7-.22-1.057a9.977,9.977,0,0,1-.485-.968c-.088-.353-.088-.705-.177-1.057-.044-.352,0-.749-.044-1.1s-.22-.66-.264-1.058C501.544,383.8,501.588,383.443,501.588,383.091Zm25.9,0a8.691,8.691,0,0,0-.133-1.057,9.261,9.261,0,0,0-.044-1.1,9.107,9.107,0,0,0-.22-1.057c-.133-.308-.22-.7-.353-1.012a9.587,9.587,0,0,0-.483-.969c-.22-.308-.485-.574-.661-.838-.264-.264-.483-.527-.748-.792-.264-.22-.53-.486-.794-.705a10.965,10.965,0,0,0-.879-.66c-.309-.133-.661-.308-1.013-.442a7.738,7.738,0,0,0-1.057-.132,9.1,9.1,0,0,0-1.058-.177c-.352,0-.7-.175-1.056-.175-.4,0-.749.088-1.1.088a9.315,9.315,0,0,0-1.057.264c-.352.088-.66.222-1.013.309a6.5,6.5,0,0,0-.968.44l-.926.529c-.264.219-.66.352-.926.574-.219.263-.483.571-.7.835a4.864,4.864,0,0,0-.574.926,9.165,9.165,0,0,0-.4.969,9.962,9.962,0,0,0-.483.968c-.088.353-.177.705-.264,1.057-.044.352-.132.705-.177,1.057,0,.352.133.748.133,1.1s-.044.7-.044,1.056c.044.4,0,.75.044,1.1.088.352.352.661.44,1.013a6.9,6.9,0,0,0,.308,1.013c.177.352.352.616.53.924a6.745,6.745,0,0,0,.527.968c.22.264.485.529.749.793a5.8,5.8,0,0,0,.837.617c.308.219.572.483.882.66a6.654,6.654,0,0,0,.968.485,7.365,7.365,0,0,0,1.057.22,8.7,8.7,0,0,0,1.057.132c.352,0,.7.133,1.1.133a8.685,8.685,0,0,0,1.056-.133,4.439,4.439,0,0,0,1.058-.175,8.921,8.921,0,0,0,1.013-.308c.352-.133.748-.133,1.057-.265a6.372,6.372,0,0,0,.835-.7,6.68,6.68,0,0,0,.926-.617,4.282,4.282,0,0,0,.66-.837,6.27,6.27,0,0,0,.53-.924,6.816,6.816,0,0,0,.527-.968,6.571,6.571,0,0,0,.441-.969,9.106,9.106,0,0,0,.177-1.057,8.989,8.989,0,0,0,.22-1.057A9.214,9.214,0,0,0,527.484,383.091Z" transform="translate(-170.526 -366.356)" fill="#f16b50"/>
      <path id="Path_914" data-name="Path 914" d="M551.247,399.11c-.529,0-.529-.044-1.1-.044s-.572.133-1.1.133c-.572,0-.572.044-1.146.044-.527,0-.527-.088-1.1-.088h-1.1c-.574,0-.574.088-1.146.088a1.059,1.059,0,0,1-.969-1.057c0-.529.089-.529.089-1.056s-.133-.53-.133-1.058.088-.529.088-1.057c0-.483-.132-.483-.132-1.013s.132-.527.132-1.056v-1.057c0-.53.045-.53.045-1.057s-.045-.529-.045-1.058c0-.483-.088-.483-.088-1.012V387.7c0-.529-.044-.529-.044-1.057V385.59c0-.529.132-.529.132-1.056v-1.013c0-.529-.088-.529-.088-1.057s-.044-.529-.044-1.058.177-.527.177-1.056-.133-.529-.133-1.057c0-.483.044-.483.044-1.013s.089-.529.089-1.057-.045-.529-.045-1.056.045-.53.045-1.058-.177-.527-.177-1.013c0-.527.088-.527.088-1.057s-.088-.527-.088-1.056.177-.529.177-1.057v-1.057c0-.529-.177-.529-.177-1.057,0-.485.088-.485.088-1.012a.915.915,0,0,1,.969-.926c.572,0,.572-.177,1.1-.177.571,0,.571.044,1.1.044h1.1c.574,0,.574-.044,1.1-.044.574,0,.574.133,1.1.133.571,0,.571.044,1.1.044.572,0,.572-.133,1.1-.133h1.1c.572,0,.572.089,1.1.089.572,0,.572.044,1.1.044.572,0,.572-.177,1.1-.177a9.05,9.05,0,0,1,1.056.22c.4,0,.749.044,1.1.044a8.522,8.522,0,0,1,1.057.044,5.459,5.459,0,0,1,1.013.4c.4.09.749.134,1.056.222.353.132.706.264,1.013.4a6.6,6.6,0,0,1,.969.485,10.576,10.576,0,0,1,.924.572,9.115,9.115,0,0,1,.838.66c.263.22.571.441.793.661.264.264.483.572.7.837a10.019,10.019,0,0,1,.572.882,10.8,10.8,0,0,1,.617.923c.131.309.308.661.44.969a9.315,9.315,0,0,1,.264,1.057c.088.352.22.7.309,1.058a8.5,8.5,0,0,1,.044,1.056,9.227,9.227,0,0,1,0,1.1c0,.352.088.705.088,1.057a7.378,7.378,0,0,1-.353,1.057,9.3,9.3,0,0,1-.088,1.1,6.84,6.84,0,0,1-.352,1.013,6.671,6.671,0,0,1-.485.969,10.253,10.253,0,0,1-.529.968c-.22.264-.529.485-.793.749a10.452,10.452,0,0,1-.661.837c-.263.22-.615.4-.923.616a8.684,8.684,0,0,1-.926.529,1.119,1.119,0,0,0-.352,1.41c.264.483.264.44.527.924a9.586,9.586,0,0,1,.574.837c.264.441.177.485.44.924.264.485.4.4.66.837s.222.441.486.926c.264.441.175.485.44.924a9.487,9.487,0,0,0,.572.838c.266.483.222.483.485.924l.529.88c.22.485.308.4.574.882l.527.879a.506.506,0,0,1-.484.749c-.574,0-.574.089-1.146.089H566c-.572,0-.572-.044-1.146-.044s-.572-.089-1.1-.089c-.574,0-.574.133-1.146.133s-.572-.089-1.145-.089a.98.98,0,0,1-.882-.44c-.263-.441-.308-.441-.571-.88-.22-.441-.089-.529-.352-1.014l-.53-.879c-.264-.486-.352-.4-.616-.882-.264-.44-.22-.44-.483-.926-.266-.44-.266-.44-.53-.923a9.308,9.308,0,0,0-.527-.882c-.264-.44-.22-.44-.486-.926-.264-.44-.175-.483-.44-.968-.264-.441-.308-.441-.572-.88a.934.934,0,0,0-.882-.441c-.66,0-.66.044-1.365.044a.868.868,0,0,0-.924.88c0,.53-.045.53-.045,1.013v1.057c0,.485.045.485.045,1.013,0,.485-.089.485-.089,1.012s-.044.53-.044,1.013c0,.529.133.529.133,1.013,0,.529.045.529.045,1.058,0,.483-.178.483-.178,1.012A.877.877,0,0,1,551.247,399.11Zm4.976-16.646a7.29,7.29,0,0,0,1.013-.045,6.237,6.237,0,0,0,.969-.352,3.153,3.153,0,0,0,.88-.4,5.105,5.105,0,0,0,.793-.574,5.781,5.781,0,0,0,.529-.879,6.368,6.368,0,0,0,.175-.969,3.411,3.411,0,0,0,.177-.969,7.6,7.6,0,0,0,0-1.013,3.582,3.582,0,0,0-.44-.924,2.752,2.752,0,0,0-.441-.88,2.575,2.575,0,0,0-.793-.572,5.96,5.96,0,0,0-.88-.53,6.316,6.316,0,0,0-.969-.219,7.066,7.066,0,0,0-1.013-.089h-1.012c-.485,0-.485.089-.969.089h-1.013a.941.941,0,0,0-.924.968v1.058c0,.527-.133.527-.133,1.056s.044.529.044,1.057.044.53.044,1.057.045.529.045,1.057-.133.529-.133,1.012a1.026,1.026,0,0,0,1.057.969c.486,0,.486.044,1.013.044.485,0,.485.089.969.089C555.74,382.508,555.74,382.464,556.223,382.464Z" transform="translate(-161.388 -366.301)" fill="#f16b50"/>
    </g>
    <g id="Group_31" data-name="Group 31" transform="translate(230.39 225.349)">
      <path id="Path_915" data-name="Path 915" d="M237.433,230.276c-.529,0-.529.045-1.1.045s-.572.044-1.1.044h-1.145c-.529,0-.529-.044-1.1-.044s-.571-.089-1.1-.089H230.74a.856.856,0,0,1-.882-.88c0-.529-.132-.529-.132-1.057,0-.572.175-.572.175-1.1s-.044-.527-.044-1.057v-1.1c0-.529-.088-.529-.088-1.056a1.049,1.049,0,0,1,.969-1.014c.527,0,.527.045,1.056.045s.529.088,1.057.088c.485,0,.485-.044,1.013-.044s.529-.133,1.057-.133.529.133,1.012.133c.53,0,.53.044,1.057.044s.53-.133,1.058-.133c.483,0,.483-.044,1.013-.044s.527.133,1.056.133.529-.044,1.057-.044c.483,0,.483-.045,1.013-.045h2.069c.53,0,.53.133,1.057.133s.529-.177,1.057-.177c.485,0,.485.133,1.014.133s.527-.044,1.056-.044.529-.089,1.013-.089c.527,0,.527.177,1.057.177h4.139a.867.867,0,0,1,.924.882c0,.527-.044.527-.044,1.056s.044.529.044,1.1c0,.53.088.53.088,1.057v1.1c0,.529-.044.529-.044,1.057a1.016,1.016,0,0,1-.968,1.013c-.529,0-.529-.133-1.1-.133s-.572.089-1.1.089h-2.246c-.53,0-.53-.089-1.1-.089H248a1.057,1.057,0,0,0-1.013,1.013c0,.529-.044.529-.044,1.057s.088.529.088,1.057.089.529.089,1.057-.089.527-.089,1.057.045.529.045,1.057-.133.529-.133,1.056c0,.486.088.486.088,1.013s.089.529.089,1.058-.133.527-.133,1.057-.044.527-.044,1.056.044.529.044,1.057.089.529.089,1.057.044.529.044,1.057-.089.529-.089,1.057.045.529.045,1.057.044.527.044,1.057-.133.529-.133,1.057-.044.529-.044,1.056.044.53.044,1.057.089.529.089,1.058-.045.527-.045,1.057-.088.527-.088,1.056a.858.858,0,0,1-.835.926c-.574,0-.574.088-1.146.088s-.572-.088-1.1-.088c-.572,0-.572.044-1.145.044s-.572-.044-1.146-.044-.572.044-1.1.044h-1.146a1.009,1.009,0,0,1-.969-.969c0-.529.045-.529.045-1.056s.044-.53.044-1.057-.044-.53-.044-1.058-.045-.527-.045-1.057V249.17c0-.529-.044-.529-.044-1.057s.044-.53.044-1.057V246c0-.529.045-.529.045-1.057s-.045-.529-.045-1.057-.044-.529-.044-1.057.044-.529.044-1.057.045-.529.045-1.056.044-.53.044-1.057-.133-.53-.133-1.058c0-.483.089-.483.089-1.013s-.089-.527-.089-1.056.044-.529.044-1.057-.044-.53-.044-1.057.133-.529.133-1.057-.133-.529-.133-1.057.133-.529.133-1.057A1.017,1.017,0,0,0,237.433,230.276Z" transform="translate(-229.727 -222.922)" fill="#7c748f"/>
      <path id="Path_916" data-name="Path 916" d="M285.822,223.047c.571,0,.571.044,1.1.044s.529-.044,1.056-.044c.574,0,.574-.089,1.1-.089s.53.045,1.1.045c.527,0,.527-.045,1.057-.045s.527.089,1.1.089a1.027,1.027,0,0,1,.748.308,1.138,1.138,0,0,1,.4.749c0,.529-.089.529-.089,1.012v1.057c0,.53.045.53.045,1.057s.044.529.044,1.013c0,.529-.089.529-.089,1.057v1.057c0,.485-.044.485-.044,1.013s-.044.527-.044,1.057.044.527.044,1.056c0,.486.089.486.089,1.013s.044.529.044,1.057-.133.529-.133,1.013c0,.529.089.529.089,1.056v2.072c0,.527-.045.527-.045,1.057v1.056c0,.485.089.485.089,1.013s-.089.529-.089,1.057-.044.529-.044,1.057c0,.485.044.485.044,1.012v2.071c0,.527-.044.527-.044,1.056v5.2a1.232,1.232,0,0,1-.264.794,1.111,1.111,0,0,1-.748.264c-.574,0-.574.088-1.1.088h-1.057c-.572,0-.572.044-1.1.044s-.527-.177-1.1-.177c-.527,0-.527.133-1.056.133h-1.1a.974.974,0,0,1-.705-.4.985.985,0,0,1-.4-.75c0-.527-.044-.527-.044-1.057V252.2c0-.529.088-.529.088-1.057s.089-.529.089-1.057-.177-.529-.177-1.057.133-.529.133-1.056V245.9c0-.527-.133-.527-.133-1.057s.133-.527.133-1.056c0-.309-.22-.485-.441-.705-.175-.177-.4-.44-.705-.44h-1.012c-.485,0-.485.088-1.013.088-.483,0-.483-.088-1.013-.088-.483,0-.483.044-.968.044-.529,0-.529-.044-1.013-.044-.529,0-.529.132-1.013.132-.529,0-.529-.044-1.013-.044s-.483-.044-1.012-.044c-.485,0-.485.044-1.013.044a.973.973,0,0,0-.793.264,1,1,0,0,0-.308.793c0,.529-.044.529-.044,1.056s.132.53.132,1.057-.044.53-.044,1.057-.088.529-.088,1.014c0,.527.132.527.132,1.056s-.088.529-.088,1.057.088.529.088,1.057-.132.529-.132,1.057v1.012c0,.53.044.53.044,1.057a1.331,1.331,0,0,1-.22.838,1.361,1.361,0,0,1-.837.264c-.529,0-.529-.089-1.1-.089-.529,0-.529.089-1.057.089h-1.1c-.529,0-.529.088-1.057.088-.572,0-.572-.132-1.1-.132H265.96a1.152,1.152,0,0,1-.793-.264,1.034,1.034,0,0,1-.352-.794v-1.013c0-.527-.044-.527-.044-1.056s.132-.529.132-1.057c0-.483-.132-.483-.132-1.013s.088-.529.088-1.057.044-.529.044-1.012c0-.53-.088-.53-.088-1.057v-1.058c0-.527.044-.527.044-1.012,0-.529.044-.529.044-1.057s-.044-.529-.044-1.057c0-.483-.088-.483-.088-1.013s.132-.529.132-1.056-.088-.53-.088-1.057c0-.486.132-.486.132-1.013v-2.07c0-.529-.088-.529-.088-1.057V234.5c0-.527.044-.527.044-1.013,0-.529.044-.529.044-1.056s-.044-.53-.044-1.057c0-.485-.088-.485-.088-1.013s.132-.529.132-1.057-.175-.529-.175-1.057c0-.485.044-.485.044-1.013s-.044-.527-.044-1.057.088-.527.088-1.012V224.1a1.054,1.054,0,0,1,1.1-1.057c.529,0,.529.044,1.057.044s.529-.088,1.1-.088c.529,0,.529.088,1.057.088h1.1c.529,0,.529-.044,1.057-.044h1.1a.908.908,0,0,1,.749.308,1.065,1.065,0,0,1,.308.749v1.012c0,.53-.044.53-.044,1.013,0,.53.044.53.044,1.057V228.2c0,.529.132.529.132,1.012,0,.53-.088.53-.088,1.013,0,.529.088.529.088,1.057,0,.485-.044.485-.044,1.013s-.132.529-.132,1.013c0,.529.044.529.044,1.057,0,.264.219.483.4.705a1.1,1.1,0,0,0,.705.352c.529,0,.529-.088,1.013-.088h1.012c.485,0,.485.088,1.013.088h1.013c.485,0,.485.088,1.013.088.485,0,.485-.044.968-.044.53,0,.53-.044,1.013-.044.529,0,.529-.044,1.013-.044h1.012a1.134,1.134,0,0,0,.794-.22,1.191,1.191,0,0,0,.352-.793c0-.529-.045-.529-.045-1.057,0-.485-.088-.485-.088-1.013v-1.013c0-.529.133-.529.133-1.057v-1.013c0-.483-.089-.483-.089-1.012s.089-.529.089-1.013c0-.527-.089-.527-.089-1.057,0-.483.133-.483.133-1.013,0-.483-.133-.483-.133-1.012a1.177,1.177,0,0,1,.308-.793A1.031,1.031,0,0,1,285.822,223.047Z" transform="translate(-222.094 -222.914)" fill="#7c748f"/>
      <path id="Path_917" data-name="Path 917" d="M303.281,223.119c.53,0,.53-.088,1.058-.088.572,0,.572.044,1.1.044H306.5c.572,0,.572-.044,1.1-.044s.53.044,1.057.044c.574,0,.574-.044,1.1-.044s.527.044,1.057.044c.572,0,.572-.044,1.1-.044h2.159c.527,0,.527.132,1.1.132.529,0,.529-.044,1.057-.044h2.158c.527,0,.527-.044,1.1-.044.529,0,.529-.044,1.057-.044.572,0,.572.132,1.1.132s.53-.088,1.058-.088c.572,0,.572-.044,1.1-.044a1.055,1.055,0,0,1,.748.4,1.09,1.09,0,0,1,.353.749c0,.485.044.485.044,1.013s.044.529.044,1.012c0,.53-.219.53-.219,1.013,0,.529.175.529.175,1.057,0,.485-.175.485-.175,1.013a.792.792,0,0,1-.265.705.946.946,0,0,1-.7.44c-.529,0-.529-.044-1.1-.044-.529,0-.529.044-1.058.044s-.527-.132-1.1-.132c-.529,0-.529.132-1.057.132h-1.1c-.529,0-.529-.044-1.058-.044s-.527-.044-1.1-.044c-.529,0-.529-.089-1.057-.089s-.53.089-1.1.089c-.529,0-.529.132-1.057.132s-.529-.175-1.1-.175a1.1,1.1,0,0,0-.792.352,1,1,0,0,0-.308.793c0,.529-.044.529-.044,1.057s.044.529.044,1.056.088.53.088,1.058a.965.965,0,0,0,.308.705c.22.219.44.44.7.44.53,0,.53-.088,1.057-.088.574,0,.574.088,1.1.088s.527-.132,1.057-.132.527.088,1.057.088.529.044,1.056.044.53-.044,1.057-.044.529-.044,1.058-.044.527.088,1.057.088.527-.044,1.056-.044a1.052,1.052,0,0,1,1.057,1.057c0,.616-.044.616-.044,1.19s.132.571.132,1.187v2.378a1.026,1.026,0,0,1-.44.705.9.9,0,0,1-.705.4h-1.056c-.53,0-.53-.045-1.057-.045H318.3c-.527,0-.527.045-1.057.045s-.527.044-1.056.044-.53-.044-1.057-.044-.53-.045-1.057-.045-.529.045-1.1.045c-.527,0-.527-.045-1.057-.045a1.087,1.087,0,0,0-.748.352,1.063,1.063,0,0,0-.308.75c0,.571.088.571.088,1.144v1.1c0,.574-.132.574-.132,1.146a1.127,1.127,0,0,0,1.1,1.145c.53,0,.53-.132,1.057-.132s.53.132,1.058.132.527.044,1.057.044c.483,0,.483-.044,1.012-.044h1.057c.53,0,.53-.132,1.057-.132s.529.175,1.013.175c.529,0,.529-.132,1.056-.132s.53.044,1.057.044.53-.044,1.058-.044c.483,0,.483-.044,1.013-.044h1.056a1.055,1.055,0,0,1,1.057,1.145v2.07c0,.483-.044.483-.044,1.013v1.013c0,.527.044.527.044,1.012a1.062,1.062,0,0,1-.308.749.977.977,0,0,1-.749.4c-.529,0-.529-.132-1.056-.132s-.53.175-1.057.175-.529-.044-1.058-.044-.527-.088-1.057-.088-.527.132-1.056.132h-1.057c-.529,0-.529-.088-1.057-.088s-.529.088-1.057.088c-.572,0-.572-.132-1.1-.132h-1.057c-.53,0-.53.044-1.057.044h-1.057c-.529,0-.529-.088-1.056-.088s-.53.044-1.058.044H307.51c-.529,0-.529.088-1.056.088s-.53-.044-1.057-.044-.53-.044-1.057-.044-.529.088-1.058.088a.979.979,0,0,1-.748-.4,1.027,1.027,0,0,1-.44-.749c0-.529.175-.529.175-1.012,0-.53-.132-.53-.132-1.058s.132-.529.132-1.057V250.2c0-.527-.088-.527-.088-1.056s.088-.529.088-1.013v-2.114c0-.529-.088-.529-.088-1.012,0-.53.044-.53.044-1.058s-.044-.529-.044-1.057c0-.483.088-.483.088-1.013s-.088-.527-.088-1.056.088-.529.088-1.057c0-.485-.132-.485-.132-1.013s-.044-.529-.044-1.057.175-.529.175-1.012c0-.53-.044-.53-.044-1.057s-.088-.529-.088-1.058.044-.527.044-1.013c0-.527.044-.527.044-1.056s-.132-.529-.132-1.057c0-.483.132-.483.132-1.013V227.3c0-.529-.088-.529-.088-1.058s.132-.527.132-1.012c0-.529-.044-.529-.044-1.057a.934.934,0,0,1,1.056-1.057Z" transform="translate(-213.966 -222.898)" fill="#7c748f"/>
    </g>
    <path id="Path_918" data-name="Path 918" d="M575.706,358.2c-.98-2.084-.859-2.084-1.716-4.047-.982-2.084-1.1-2.084-1.962-4.044-.98-2.084-.98-1.961-1.839-4.046-.982-1.962-.857-2.084-1.839-4.046-.858-2.084-.612-2.207-1.471-4.167-.98-2.084-.98-2.084-1.961-4.046-.859-2.085-.859-2.085-1.716-4.046-.982-2.084-1.226-1.962-2.085-3.923-.98-2.085-1.1-1.962-1.962-4.046-.98-1.962-.611-2.207-1.471-4.169-.979-2.084-.857-2.084-1.838-4.046-.859-2.082-1.226-1.961-2.084-3.923-.982-2.084-.737-2.084-1.716-4.167-.859-1.962-.737-2.085-1.718-4.046a40.549,40.549,0,0,0-1.838-4.046c-.857-2.084-1.349-1.839-2.207-3.923-.859-1.962-.49-2.207-1.348-4.169-.982-2.084-1.349-1.961-2.207-3.923-.98-2.084-.859-2.084-1.716-4.046-.982-2.084-.982-2.084-1.962-4.044-.98-2.33-2.207-4.29-2.942-6.62-.123-.368-.123-.613-.368-.859l-.735-.368c-.245,0-.491-.122-.736-.122a1.488,1.488,0,0,0-1.226.367,2.705,2.705,0,0,0-.368.614c-.979,2.328-2.084,4.535-3.064,6.865-.857,2.084-.736,2.084-1.594,4.167-.98,1.962-.734,2.085-1.593,4.046-.98,2.085-1.1,1.962-1.962,4.046a40.865,40.865,0,0,0-1.839,4.046c-.859,1.962-.736,2.084-1.593,4.046-.859,2.084-1.1,1.961-1.962,4.046-.859,1.961-.736,2.084-1.594,4.044-.857,2.085-1.1,1.962-1.961,3.924-.98,2.084-.859,2.084-1.717,4.167-.979,1.962-.857,1.962-1.838,4.046-.859,1.962-.982,1.962-1.839,3.924-.982,2.082-.614,2.205-1.471,4.167-.982,2.084-1.1,1.961-2.084,3.923-.859,2.084-.491,2.207-1.349,4.29-.859,1.962-1.1,1.839-1.962,3.923-.857,1.962-.857,2.084-1.716,4.046-.857,2.084-.98,2.084-1.839,4.046-.857,2.085-1.1,1.962-1.961,3.923-.859,2.084-.859,2.084-1.716,4.167-.859,1.963-.737,1.963-1.594,4.047a.912.912,0,0,0,.857,1.348h5.15c2.45,0,2.45-.123,5.026-.123s2.573.246,5.026.246a1.862,1.862,0,0,0,1.593-1.226c.737-1.716.859-1.716,1.594-3.433s.859-1.716,1.593-3.432.613-1.716,1.349-3.432c.245-.492.49-.859.98-.859h4.781c2.451,0,2.451.122,4.781.122,2.451,0,2.451.123,4.781.123,2.45,0,2.45-.123,4.781-.123h9.561c2.451,0,2.451.123,4.781.123a.816.816,0,0,1,.857.614c.737,1.716.859,1.716,1.471,3.432.737,1.716.737,1.716,1.471,3.432s.737,1.717,1.471,3.555a2.226,2.226,0,0,0,1.839,1.226c2.085,0,2.085-.245,4.169-.245s2.084.123,4.169.123,2.082-.123,4.166-.123,2.085-.123,4.169-.123A.862.862,0,0,0,575.706,358.2Zm-55.12-29.647,4.6-.76c2.993-5.2,8-12.97,12.987-16.619a.477.477,0,0,1,.739.441c-.084,5.7.888,12.2,5.291,16.287l4.151.652C548.359,329.12,520.586,329.12,520.586,328.558Z" transform="translate(58.288 12.535)" fill="#2eb0a2"/>
  </g>
</svg>
